<svg width="250" height="250" viewBox="0 0 250 250" fill="none" xmlns="http://www.w3.org/2000/svg">
<path d="M44.3081 29.5337C27.8789 43.4203 15.3115 61.3118 7.82149 81.4776C0.331527 101.643 -1.82745 123.401 1.55341 144.645C4.93427 165.89 13.7405 185.902 27.1203 202.747C40.5001 219.591 58.0006 232.698 77.9289 240.799L125 125L44.3081 29.5337Z" fill="#B2E374"/>
<path d="M78.1023 240.869C101.019 250.144 126.172 252.416 150.379 247.396C174.587 242.377 196.763 230.292 214.102 212.669C231.441 195.046 243.165 172.678 247.792 148.392C252.418 124.106 249.739 98.9933 240.093 76.23L125 125L78.1023 240.869Z" fill="#EBF576"/>
<path d="M240.886 78.1454C232.193 56.6448 217.69 37.9864 198.999 24.2571C180.308 10.5279 158.166 2.26917 135.05 0.404635L125 125L240.886 78.1454Z" fill="#88D8AD"/>
<path d="M135.274 0.422917C102.234 -2.30186 69.4648 8.21001 44.1754 29.646L125 125L135.274 0.422917Z" fill="#85C375"/>
<ellipse cx="125.481" cy="125" rx="64.9038" ry="64.6552" fill="white"/>
<path d="M101.84 119.28H105.83V124.41H101.84V119.28ZM111.62 119.28H115.58V124.41H111.62V119.28ZM108.77 110.37C114.89 110.37 118.82 112.44 118.82 115.8C118.82 119.19 114.89 121.26 108.77 121.26C102.65 121.26 98.72 119.19 98.72 115.8C98.72 112.44 102.65 110.37 108.77 110.37ZM108.77 113.46C104.96 113.46 102.83 114.21 102.83 115.8C102.83 117.39 104.96 118.17 108.77 118.17C112.55 118.17 114.71 117.39 114.71 115.8C114.71 114.21 112.55 113.46 108.77 113.46ZM96.2 123.54H121.31V126.69H96.2V123.54ZM98.99 128.58H118.28V137.67H114.29V131.73H98.99V128.58ZM137.988 113.94H144.828V117.12H137.988V113.94ZM143.058 109.89H147.048V123.99H143.058V109.89ZM128.688 125.16H147.048V132.63H132.678V136.11H128.748V129.75H143.088V128.22H128.688V125.16ZM128.748 134.28H147.828V137.37H128.748V134.28ZM130.158 110.79H133.398V112.77C133.398 118.02 130.938 122.55 125.628 124.23L123.588 121.08C128.208 119.7 130.158 116.31 130.158 112.77V110.79ZM130.938 110.79H134.178V112.77C134.178 116.07 136.038 119.28 140.418 120.6L138.378 123.69C133.308 122.04 130.938 117.75 130.938 112.77V110.79Z" fill="black"/>
</svg>
