<svg width="250" height="250" viewBox="0 0 250 250" fill="none" xmlns="http://www.w3.org/2000/svg">
<path d="M29.5232 44.3205C16.8152 59.3592 7.83951 77.1871 3.32712 96.352C-1.18527 115.517 -1.10668 135.477 3.5565 154.605C8.21968 173.734 17.3355 191.491 30.1615 206.429C42.9875 221.367 59.1608 233.064 77.364 240.567L125 125L29.5232 44.3205Z" fill="#B2E374"/>
<path d="M77.1666 240.486C100.008 249.946 125.141 252.421 149.388 247.598C173.636 242.774 195.909 230.869 213.39 213.387C230.871 195.905 242.776 173.632 247.599 149.384C252.421 125.136 249.945 100.003 240.484 77.1625L125 125L77.1666 240.486Z" fill="#EBF576"/>
<path d="M240.533 77.2806C231.075 54.3827 215.027 34.8115 194.425 21.0519C173.823 7.29237 149.597 -0.0350067 124.823 0.000125688L125 125L240.533 77.2806Z" fill="#88D8AD"/>
<path d="M125 0C106.501 -2.20597e-07 88.2328 4.10591 71.513 12.0215C54.7931 19.9371 40.0386 31.4651 28.3139 45.7738L125 125V0Z" fill="#85C375"/>
<ellipse cx="125.498" cy="125" rx="64.741" ry="64.6186" fill="white"/>
<path d="M102.25 110.86H106.27V138.73H102.25V110.86ZM84.58 113.08H88.54V119.83H94.27V113.08H98.23V132.25H84.58V113.08ZM88.54 122.92V129.04H94.27V122.92H88.54ZM110.798 124.36H135.938V127.54H110.798V124.36ZM121.328 120.76H125.288V125.74H121.328V120.76ZM121.268 111.37H124.688V112.21C124.688 117.34 120.608 121.36 113.528 122.38L112.058 119.26C118.298 118.51 121.268 115.33 121.268 112.21V111.37ZM121.928 111.37H125.348V112.21C125.348 115.45 128.258 118.51 134.558 119.26L133.088 122.38C126.008 121.33 121.928 117.46 121.928 112.21V111.37ZM113.588 129.49H132.878V138.67H128.888V132.61H113.588V129.49ZM146.015 112.81C150.155 112.81 153.185 116.65 153.185 122.71C153.185 128.83 150.155 132.67 146.015 132.67C141.845 132.67 138.845 128.83 138.845 122.71C138.845 116.65 141.845 112.81 146.015 112.81ZM146.015 116.44C144.005 116.44 142.655 118.63 142.655 122.71C142.655 126.85 144.005 129.07 146.015 129.07C148.055 129.07 149.375 126.85 149.375 122.71C149.375 118.63 148.055 116.44 146.015 116.44ZM157.745 110.86H161.705V138.73H157.745V110.86ZM152.015 120.88H159.425V124.09H152.015V120.88Z" fill="black"/>
</svg>
