<svg width="32" height="37" viewBox="0 0 32 37" fill="none" xmlns="http://www.w3.org/2000/svg">
<path d="M30.0507 15.6772L30.0504 15.6765C29.6654 14.7958 29.1947 13.953 28.6447 13.1594L28.506 12.9592L28.3023 13.0926L25.398 14.9946L25.1833 15.1353L25.3295 15.3462C26.1478 16.5265 26.7215 17.8494 27.0193 19.2414C27.3226 20.6925 27.3226 22.1879 27.0193 23.639C26.8707 24.3397 26.6506 25.0243 26.3622 25.6828L26.3618 25.6837C26.0816 26.3306 25.736 26.9491 25.3301 27.5301C24.5182 28.6918 23.4856 29.6935 22.2871 30.4812C21.0709 31.2753 19.7071 31.8329 18.2713 32.1228C16.7734 32.4139 15.231 32.4139 13.7332 32.1227C11.5783 31.693 9.60183 30.6588 8.04889 29.1495L8.04881 29.1495C7.02277 28.1532 6.20422 26.9752 5.63742 25.6797C5.35157 25.0211 5.13266 24.3371 4.98377 23.6374C4.53212 21.4762 4.75979 19.2331 5.63764 17.1985C6.20215 15.9036 7.02016 14.7267 8.04678 13.7329L8.04682 13.7329C9.07332 12.7389 10.2869 11.9444 11.6222 11.3929C12.2991 11.1152 13.0104 10.9006 13.7302 10.7576L13.7304 10.7576C13.8224 10.7392 13.9088 10.727 13.999 10.7152V15.5981V16.1087L14.4023 15.7956L23.1606 8.99654L23.415 8.79906L23.1606 8.60158L14.4023 1.80252L13.999 1.48944V2V6.77091C13.6416 6.81435 13.2858 6.86974 12.9323 6.93699L12.9323 6.93698L12.9303 6.93739C10.9795 7.3253 9.1262 8.08258 7.47651 9.16625C4.54635 11.0844 2.39198 13.9315 1.38347 17.2223C0.374891 20.5133 0.575502 24.0421 1.95071 27.2052C2.71631 28.9663 3.82688 30.5659 5.22038 31.9153C6.61175 33.2628 8.25665 34.338 10.0654 35.0825L10.0656 35.0826C12.9094 36.2501 16.0514 36.5507 19.0749 35.9447L19.0749 35.9447C21.4951 35.4593 23.7583 34.4109 25.6698 32.8889C27.5814 31.3669 29.0843 29.4167 30.0487 27.2055L30.0487 27.2055C30.4407 26.3065 30.7421 25.3706 30.9401 24.4235C31.3533 22.4548 31.3533 20.4254 30.9401 18.4568L30.9399 18.456C30.7369 17.5039 30.4391 16.5733 30.0507 15.6772Z" fill="black" stroke="black" stroke-width="0.5"/>
</svg>
