<svg width="640" height="149" viewBox="0 0 640 149" fill="none" xmlns="http://www.w3.org/2000/svg">
<g filter="url(#filter0_d_286_92)">
<path d="M4.94945 65.1227L162.937 13.3907L171.337 60.0974L4.94945 65.1227Z" fill="#C9ECA7"/>
<rect x="108.74" y="8.00098" width="526.67" height="132.384" rx="20" fill="#C9ECA7"/>
<path d="M158.267 42.633H163.931V45.153H158.267V42.633ZM158.267 47.409H164.027V49.929H158.267V47.409ZM162.779 38.937H165.971V55.329H162.779V38.937ZM151.259 58.209H166.451V60.753H151.259V58.209ZM151.259 53.721H154.475V59.673H151.259V53.721ZM148.307 40.377H151.475V43.761H155.699V40.377H158.819V51.849H148.307V40.377ZM151.475 46.185V49.329H155.699V46.185H151.475ZM179.505 42.009H186.033V44.553H179.505V42.009ZM179.505 47.409H186.033V49.953H179.505V47.409ZM184.857 38.937H188.049V55.185H184.857V38.937ZM173.385 58.209H188.553V60.753H173.385V58.209ZM173.385 53.577H176.577V59.529H173.385V53.577ZM175.593 40.233C178.881 40.233 181.449 42.633 181.449 45.993C181.449 49.305 178.881 51.729 175.593 51.729C172.281 51.729 169.713 49.305 169.713 45.993C169.713 42.633 172.281 40.233 175.593 40.233ZM175.593 43.041C173.961 43.041 172.761 44.145 172.761 45.993C172.761 47.841 173.961 48.945 175.593 48.945C177.201 48.945 178.425 47.841 178.425 45.993C178.425 44.145 177.201 43.041 175.593 43.041ZM200.095 44.769H204.607V47.313H200.095V44.769ZM199.975 50.313H204.511V52.857H199.975V50.313ZM207.631 38.913H210.679V61.137H207.631V38.913ZM203.047 39.393H206.023V60.153H203.047V39.393ZM198.031 41.529H201.103C201.103 47.841 199.207 52.881 193.015 56.529L191.215 54.297C196.231 51.249 198.031 47.553 198.031 42.177V41.529ZM192.487 41.529H199.111V44.073H192.487V41.529Z" fill="black"/>
<path d="M149.571 75.201H151.211V77.461H159.951V75.201H161.611V82.421H149.571V75.201ZM151.211 78.781V81.081H159.951V78.781H151.211ZM147.391 84.341H163.731V85.701H147.391V84.341ZM154.751 81.641H156.391V84.941H154.751V81.641ZM149.511 90.801H161.931V92.161H149.511V90.801ZM149.511 87.161H151.171V91.261H149.511V87.161ZM168.029 79.501H180.289V80.861H168.029V79.501ZM168.029 74.841H169.669V80.101H168.029V74.841ZM165.809 82.961H182.149V84.301H165.809V82.961ZM173.949 85.921C177.809 85.921 180.149 87.101 180.149 89.221C180.149 91.301 177.809 92.501 173.949 92.501C170.089 92.501 167.749 91.301 167.749 89.221C167.749 87.101 170.089 85.921 173.949 85.921ZM173.949 87.221C171.129 87.221 169.429 87.941 169.429 89.221C169.429 90.461 171.129 91.181 173.949 91.181C176.789 91.181 178.469 90.461 178.469 89.221C178.469 87.941 176.789 87.221 173.949 87.221ZM190.068 75.781C192.888 75.781 194.908 77.521 194.908 80.041C194.908 82.581 192.888 84.321 190.068 84.321C187.248 84.321 185.208 82.581 185.208 80.041C185.208 77.521 187.248 75.781 190.068 75.781ZM190.068 77.221C188.188 77.221 186.828 78.361 186.828 80.041C186.828 81.721 188.188 82.881 190.068 82.881C191.928 82.881 193.288 81.721 193.288 80.041C193.288 78.361 191.928 77.221 190.068 77.221ZM197.268 74.461H198.928V92.581H197.268V74.461ZM184.528 88.621L184.288 87.241C187.588 87.241 192.148 87.221 196.088 86.601L196.228 87.821C192.168 88.601 187.748 88.621 184.528 88.621ZM213.139 82.961H214.799V87.561H213.139V82.961ZM220.999 74.481H222.659V92.561H220.999V74.481ZM208.179 88.661L207.959 87.281C211.479 87.261 215.939 87.221 219.819 86.721L219.939 87.981C215.919 88.601 211.599 88.661 208.179 88.661ZM209.359 81.881H218.719V83.241H209.359V81.881ZM209.359 76.241H211.019V82.241H209.359V76.241ZM228.124 91.1359C227.736 91.1359 227.402 90.9986 227.123 90.724C226.843 90.4446 226.704 90.1085 226.704 89.7155C226.704 89.3272 226.843 88.9958 227.123 88.7211C227.402 88.4418 227.736 88.3021 228.124 88.3021C228.512 88.3021 228.846 88.4418 229.125 88.7211C229.405 88.9958 229.545 89.3272 229.545 89.7155C229.545 89.9759 229.478 90.215 229.346 90.4328C229.218 90.6459 229.047 90.8163 228.834 90.9442C228.621 91.072 228.384 91.1359 228.124 91.1359ZM159.771 98.481H161.431V108.721H159.771V98.481ZM160.971 102.881H164.111V104.261H160.971V102.881ZM154.771 99.641H156.531C156.531 104.201 153.351 107.481 148.031 108.921L147.391 107.601C152.071 106.321 154.771 103.701 154.771 100.381V99.641ZM148.171 99.641H155.691V100.981H148.171V99.641ZM150.051 109.581H161.431V116.321H150.051V109.581ZM159.791 110.921H151.691V114.961H159.791V110.921ZM175.449 103.161H179.529V104.541H175.449V103.161ZM179.009 98.481H180.669V109.261H179.009V98.481ZM174.729 109.801C178.449 109.801 180.749 111.061 180.749 113.181C180.749 115.321 178.449 116.541 174.729 116.541C170.989 116.541 168.689 115.321 168.689 113.181C168.689 111.061 170.989 109.801 174.729 109.801ZM174.729 111.101C172.009 111.101 170.349 111.861 170.349 113.181C170.349 114.481 172.009 115.241 174.729 115.241C177.449 115.241 179.109 114.481 179.109 113.181C179.109 111.861 177.449 111.101 174.729 111.101ZM170.409 100.301H171.769V101.761C171.769 105.101 169.729 107.961 166.729 109.081L165.869 107.761C168.549 106.781 170.409 104.361 170.409 101.761V100.301ZM170.729 100.301H172.069V101.761C172.069 104.101 173.829 106.341 176.449 107.261L175.609 108.581C172.669 107.521 170.729 104.801 170.729 101.761V100.301ZM166.369 99.801H176.029V101.161H166.369V99.801ZM185.008 100.461H193.188V101.801H185.008V100.461ZM187.828 105.621H189.468V111.741H187.828V105.621ZM192.508 100.461H194.128V101.421C194.128 102.901 194.128 105.261 193.608 108.621L191.968 108.461C192.508 105.201 192.508 102.881 192.508 101.421V100.461ZM196.408 98.481H198.048V116.561H196.408V98.481ZM197.608 106.041H200.948V107.441H197.608V106.041ZM184.208 112.621L184.008 111.221C187.288 111.221 191.648 111.161 195.308 110.701L195.388 111.921C191.648 112.521 187.408 112.601 184.208 112.621ZM212.599 99.341H213.979V101.101C213.979 104.521 211.939 107.461 208.879 108.621L208.039 107.301C210.779 106.301 212.599 103.801 212.599 101.101V99.341ZM212.899 99.341H214.259V101.101C214.259 103.701 216.119 106.041 218.799 106.981L217.959 108.281C214.939 107.181 212.899 104.421 212.899 101.101V99.341ZM210.639 110.281H222.719V116.561H221.039V111.641H210.639V110.281ZM221.039 98.481H222.719V109.361H221.039V98.481ZM230.317 104.741H231.957V108.161H230.317V104.741ZM236.957 104.741H238.597V108.161H236.957V104.741ZM234.457 98.861C238.357 98.861 240.817 100.141 240.817 102.301C240.817 104.481 238.357 105.761 234.457 105.761C230.537 105.761 228.097 104.481 228.097 102.301C228.097 100.141 230.537 98.861 234.457 98.861ZM234.457 100.181C231.577 100.181 229.797 100.961 229.797 102.301C229.797 103.641 231.577 104.441 234.457 104.441C237.317 104.441 239.117 103.641 239.117 102.301C239.117 100.961 237.317 100.181 234.457 100.181ZM226.277 107.681H242.617V109.041H226.277V107.681ZM228.097 110.721H240.597V116.561H238.937V112.081H228.097V110.721ZM247.886 113.012L247.78 113.786C247.709 114.355 247.588 114.947 247.417 115.562C247.252 116.182 247.079 116.758 246.899 117.288C246.724 117.818 246.579 118.24 246.466 118.552H244.96C245.022 118.259 245.107 117.861 245.216 117.359C245.325 116.862 245.431 116.305 245.535 115.69C245.639 115.074 245.718 114.447 245.77 113.808L245.841 113.012H247.886ZM260.056 99.501H261.436V101.361C261.436 104.861 259.456 107.721 256.356 108.881L255.496 107.521C258.256 106.541 260.056 104.121 260.056 101.361V99.501ZM260.356 99.501H261.716V101.301C261.716 103.861 263.476 106.121 266.116 107.041L265.216 108.341C262.296 107.241 260.356 104.581 260.356 101.301V99.501ZM268.716 98.481H270.376V109.181H268.716V98.481ZM264.436 109.701C268.156 109.701 270.456 110.961 270.456 113.121C270.456 115.281 268.156 116.521 264.436 116.521C260.696 116.521 258.396 115.281 258.396 113.121C258.396 110.961 260.696 109.701 264.436 109.701ZM264.436 111.021C261.716 111.021 260.056 111.801 260.056 113.121C260.056 114.441 261.716 115.221 264.436 115.221C267.156 115.221 268.816 114.441 268.816 113.121C268.816 111.801 267.156 111.021 264.436 111.021ZM264.796 102.301H269.076V103.681H264.796V102.301ZM277.935 104.741H279.575V108.161H277.935V104.741ZM284.575 104.741H286.215V108.161H284.575V104.741ZM282.075 98.861C285.975 98.861 288.435 100.141 288.435 102.301C288.435 104.481 285.975 105.761 282.075 105.761C278.155 105.761 275.715 104.481 275.715 102.301C275.715 100.141 278.155 98.861 282.075 98.861ZM282.075 100.181C279.195 100.181 277.415 100.961 277.415 102.301C277.415 103.641 279.195 104.441 282.075 104.441C284.935 104.441 286.735 103.641 286.735 102.301C286.735 100.961 284.935 100.181 282.075 100.181ZM273.895 107.681H290.235V109.041H273.895V107.681ZM275.715 110.721H288.215V116.561H286.555V112.081H275.715V110.721ZM297.606 107.081H313.946V108.461H297.606V107.081ZM299.666 104.021H312.046V105.361H299.666V104.021ZM299.666 99.201H311.906V100.561H301.306V104.661H299.666V99.201ZM305.746 110.021C309.606 110.021 311.946 111.201 311.946 113.281C311.946 115.361 309.606 116.521 305.746 116.521C301.886 116.521 299.546 115.361 299.546 113.281C299.546 111.201 301.886 110.021 305.746 110.021ZM305.746 111.301C302.926 111.301 301.226 112.021 301.226 113.281C301.226 114.521 302.926 115.221 305.746 115.221C308.586 115.221 310.266 114.521 310.266 113.281C310.266 112.021 308.586 111.301 305.746 111.301ZM324.164 98.781C328.144 98.781 330.524 99.901 330.524 101.921C330.524 103.941 328.144 105.061 324.164 105.061C320.164 105.061 317.804 103.941 317.804 101.921C317.804 99.901 320.164 98.781 324.164 98.781ZM324.164 100.041C321.204 100.041 319.504 100.721 319.504 101.921C319.504 103.121 321.204 103.801 324.164 103.801C327.104 103.801 328.804 103.121 328.804 101.921C328.804 100.721 327.104 100.041 324.164 100.041ZM315.984 106.261H332.324V107.601H315.984V106.261ZM317.964 109.141H330.244V113.221H319.644V115.421H318.004V112.021H328.604V110.421H317.964V109.141ZM318.004 115.061H330.784V116.361H318.004V115.061ZM352.056 98.481H353.716V108.721H352.056V98.481ZM353.256 102.901H356.396V104.261H353.256V102.901ZM340.516 106.321H341.916C345.636 106.321 347.736 106.221 350.156 105.721L350.336 107.081C347.856 107.581 345.716 107.701 341.916 107.701H340.516V106.321ZM340.516 99.681H348.476V101.041H342.156V107.101H340.516V99.681ZM342.356 109.681H353.716V116.321H342.356V109.681ZM352.096 111.021H343.976V114.961H352.096V111.021ZM370.474 98.481H372.134V109.221H370.474V98.481ZM371.654 103.181H374.794V104.561H371.654V103.181ZM366.354 109.601C370.014 109.601 372.294 110.901 372.294 113.081C372.294 115.261 370.014 116.541 366.354 116.541C362.694 116.541 360.414 115.261 360.414 113.081C360.414 110.901 362.694 109.601 366.354 109.601ZM366.354 110.961C363.674 110.961 362.034 111.721 362.034 113.081C362.034 114.401 363.674 115.181 366.354 115.181C369.034 115.181 370.674 114.401 370.674 113.081C370.674 111.721 369.034 110.961 366.354 110.961ZM358.894 106.441H360.294C364.034 106.441 366.134 106.321 368.554 105.821L368.754 107.181C366.254 107.681 364.114 107.801 360.294 107.801H358.894V106.441ZM358.894 99.861H366.874V101.221H360.534V107.321H358.894V99.861ZM388.853 98.501H390.513V112.061H388.853V98.501ZM389.993 104.421H393.193V105.821H389.993V104.421ZM376.533 100.681H387.213V102.021H376.533V100.681ZM381.873 103.021C384.433 103.021 386.193 104.361 386.193 106.401C386.193 108.421 384.433 109.761 381.873 109.761C379.293 109.761 377.533 108.421 377.533 106.401C377.533 104.361 379.293 103.021 381.873 103.021ZM381.873 104.321C380.233 104.321 379.113 105.141 379.113 106.401C379.113 107.641 380.233 108.461 381.873 108.461C383.493 108.461 384.613 107.641 384.613 106.401C384.613 105.141 383.493 104.321 381.873 104.321ZM381.033 98.481H382.693V101.381H381.033V98.481ZM379.253 114.801H391.333V116.161H379.253V114.801ZM379.253 110.981H380.913V115.381H379.253V110.981ZM407.111 98.461H408.791V116.581H407.111V98.461ZM408.391 105.601H411.751V107.001H408.391V105.601ZM395.651 110.681H397.071C400.411 110.681 402.751 110.561 405.451 110.061L405.631 111.461C402.851 111.981 400.471 112.081 397.071 112.081H395.651V110.681ZM395.651 100.221H404.051V101.581H397.291V111.301H395.651V100.221ZM415.116 115.136C414.728 115.136 414.394 114.999 414.115 114.724C413.835 114.445 413.696 114.108 413.696 113.715C413.696 113.327 413.835 112.996 414.115 112.721C414.394 112.442 414.728 112.302 415.116 112.302C415.505 112.302 415.838 112.442 416.118 112.721C416.397 112.996 416.537 113.327 416.537 113.715C416.537 113.976 416.47 114.215 416.338 114.433C416.21 114.646 416.04 114.816 415.826 114.944C415.613 115.072 415.377 115.136 415.116 115.136Z" fill="black"/>
</g>
<defs>
<filter id="filter0_d_286_92" x="0.949463" y="8.00098" width="638.461" height="140.384" filterUnits="userSpaceOnUse" color-interpolation-filters="sRGB">
<feFlood flood-opacity="0" result="BackgroundImageFix"/>
<feColorMatrix in="SourceAlpha" type="matrix" values="0 0 0 0 0 0 0 0 0 0 0 0 0 0 0 0 0 0 127 0" result="hardAlpha"/>
<feOffset dy="4"/>
<feGaussianBlur stdDeviation="2"/>
<feComposite in2="hardAlpha" operator="out"/>
<feColorMatrix type="matrix" values="0 0 0 0 0 0 0 0 0 0 0 0 0 0 0 0 0 0 0.25 0"/>
<feBlend mode="normal" in2="BackgroundImageFix" result="effect1_dropShadow_286_92"/>
<feBlend mode="normal" in="SourceGraphic" in2="effect1_dropShadow_286_92" result="shape"/>
</filter>
</defs>
</svg>
