<svg width="598" height="193" viewBox="0 0 598 193" fill="none" xmlns="http://www.w3.org/2000/svg">
<g filter="url(#filter0_d_228_7)">
<path d="M16.6012 171.203L133.679 53.1821L162.433 90.9348L16.6012 171.203Z" fill="#C9ECA7"/>
<rect x="67.3296" width="526.67" height="132.384" rx="20" fill="#C9ECA7"/>
<path d="M111.744 41.616H114.96V46.56H111.744V41.616ZM121.416 30.912H124.584V53.136H121.416V30.912ZM106.32 48.72L106.008 46.152C110.232 46.128 115.536 46.128 120.168 45.552L120.36 47.904C115.536 48.696 110.496 48.744 106.32 48.72ZM107.52 39.48H119.184V42.024H107.52V39.48ZM107.52 32.808H110.736V40.176H107.52V32.808ZM128.062 39.528H148.174V42.048H128.062V39.528ZM130.534 35.832H145.798V38.328H130.534V35.832ZM130.534 31.32H145.606V33.864H133.702V37.992H130.534V31.32ZM130.342 43.296H145.702V49.176H133.51V51.096H130.366V46.92H142.558V45.696H130.342V43.296ZM130.366 50.52H146.278V52.968H130.366V50.52ZM150.14 47.976H170.252V50.568H150.14V47.976ZM158.564 43.224H161.756V48.6H158.564V43.224ZM152.252 32.328H155.42V35.736H164.9V32.328H168.068V43.896H152.252V32.328ZM155.42 38.232V41.352H164.9V38.232H155.42ZM173.587 43.8835C173.587 41.7528 173.868 39.7955 174.43 38.0114C174.999 36.2216 175.842 34.5682 176.962 33.0511H179.868C179.436 33.6136 179.033 34.304 178.658 35.1222C178.283 35.9347 177.956 36.8267 177.678 37.7983C177.405 38.7642 177.189 39.767 177.03 40.8068C176.876 41.8466 176.8 42.8722 176.8 43.8835C176.8 45.2301 176.933 46.5937 177.2 47.9744C177.473 49.3551 177.839 50.6335 178.3 51.8097C178.766 52.9915 179.288 53.9574 179.868 54.7074H176.962C175.842 53.1903 174.999 51.5398 174.43 49.7557C173.868 47.9659 173.587 46.0085 173.587 43.8835ZM187.424 41.616H190.64V46.56H187.424V41.616ZM197.096 30.912H200.264V53.136H197.096V30.912ZM182 48.72L181.688 46.152C185.912 46.128 191.216 46.128 195.848 45.552L196.04 47.904C191.216 48.696 186.176 48.744 182 48.72ZM183.2 39.48H194.864V42.024H183.2V39.48ZM183.2 32.808H186.416V40.176H183.2V32.808ZM220.302 33.888H224.166V36.504H220.302V33.888ZM220.302 38.568H224.166V41.184H220.302V38.568ZM218.022 30.912H221.214V44.304H218.022V30.912ZM204.51 40.8H206.382C210.75 40.8 213.438 40.704 216.51 40.128L216.798 42.672C213.678 43.272 210.87 43.392 206.382 43.392H204.51V40.8ZM204.486 32.232H214.638V38.904H207.678V42.36H204.51V36.528H211.494V34.752H204.486V32.232ZM213.918 44.688C218.55 44.688 221.43 46.272 221.43 48.936C221.43 51.6 218.55 53.136 213.918 53.136C209.286 53.136 206.382 51.6 206.382 48.936C206.382 46.272 209.286 44.688 213.918 44.688ZM213.918 47.136C211.038 47.136 209.526 47.712 209.526 48.936C209.526 50.16 211.038 50.736 213.918 50.736C216.798 50.736 218.31 50.16 218.31 48.936C218.31 47.712 216.798 47.136 213.918 47.136ZM231.927 43.8835C231.927 46.0085 231.643 47.9659 231.075 49.7557C230.512 51.5398 229.671 53.1903 228.552 54.7074H225.646C226.083 54.1449 226.487 53.4574 226.856 52.6449C227.231 51.8324 227.555 50.9403 227.827 49.9688C228.106 48.9972 228.322 47.9915 228.475 46.9517C228.634 45.9119 228.714 44.8892 228.714 43.8835C228.714 42.5369 228.577 41.1733 228.305 39.7926C228.038 38.4119 227.671 37.1307 227.205 35.9489C226.745 34.767 226.225 33.8011 225.646 33.0511H228.552C229.671 34.5682 230.512 36.2216 231.075 38.0114C231.643 39.7955 231.927 41.7528 231.927 43.8835Z" fill="black"/>
<path d="M110.64 68.64H112V69.7C112 72.88 109.92 75.46 106.9 76.46L106.08 75.16C108.76 74.3 110.64 72.16 110.64 69.7V68.64ZM110.94 68.64H112.3V69.7C112.3 72 114.1 74.04 116.74 74.86L115.96 76.16C112.96 75.2 110.94 72.72 110.94 69.7V68.64ZM106.62 68.14H116.3V69.52H106.62V68.14ZM110.64 75.7H112.3V79.9H110.64V75.7ZM119.4 73.98H122.74V75.38H119.4V73.98ZM118.22 66.48H119.88V84.56H118.22V66.48ZM106 80.78L105.78 79.4C108.96 79.4 113.36 79.4 117.08 78.86L117.22 80.1C113.36 80.78 109.12 80.8 106 80.78ZM129.638 74.96H131.298V79.56H129.638V74.96ZM137.498 66.48H139.158V84.56H137.498V66.48ZM124.678 80.66L124.458 79.28C127.978 79.26 132.438 79.22 136.318 78.72L136.438 79.98C132.418 80.6 128.098 80.66 124.678 80.66ZM125.858 73.88H135.218V75.24H125.858V73.88ZM125.858 68.24H127.518V74.24H125.858V68.24ZM147.357 75.6H149.017V79.92H147.357V75.6ZM148.177 67.64C150.957 67.64 152.957 69.38 152.957 71.9C152.957 74.42 150.957 76.16 148.177 76.16C145.397 76.16 143.397 74.42 143.397 71.9C143.397 69.38 145.397 67.64 148.177 67.64ZM148.177 69.06C146.337 69.06 145.017 70.22 145.017 71.9C145.017 73.58 146.337 74.74 148.177 74.74C150.017 74.74 151.337 73.58 151.337 71.9C151.337 70.22 150.017 69.06 148.177 69.06ZM155.017 66.48H156.677V84.56H155.017V66.48ZM156.197 73.92H159.537V75.32H156.197V73.92ZM142.817 80.66L142.577 79.28C145.837 79.26 150.197 79.24 153.877 78.74L154.017 79.98C150.197 80.62 145.977 80.66 142.817 80.66ZM166.468 76.84H182.868V78.2H166.468V76.84ZM173.788 77.68H175.428V84.56H173.788V77.68ZM174.628 67.2C178.408 67.2 180.948 68.74 180.948 71.16C180.948 73.58 178.408 75.12 174.628 75.12C170.868 75.12 168.308 73.58 168.308 71.16C168.308 68.74 170.868 67.2 174.628 67.2ZM174.628 68.54C171.868 68.54 169.988 69.56 169.988 71.16C169.988 72.76 171.868 73.78 174.628 73.78C177.388 73.78 179.248 72.76 179.248 71.16C179.248 69.56 177.388 68.54 174.628 68.54ZM190.127 74.96H191.787V79.56H190.127V74.96ZM197.987 66.48H199.647V84.56H197.987V66.48ZM185.167 80.66L184.947 79.28C188.467 79.26 192.927 79.22 196.807 78.72L196.927 79.98C192.907 80.6 188.587 80.66 185.167 80.66ZM186.347 73.88H195.707V75.24H186.347V73.88ZM186.347 68.24H188.007V74.24H186.347V68.24ZM215.505 66.46H217.185V84.56H215.505V66.46ZM216.725 73.8H220.065V75.18H216.725V73.8ZM210.885 68.42H212.505C212.505 73.56 210.145 78.2 204.305 81.14L203.385 79.86C208.385 77.32 210.885 73.46 210.885 68.68V68.42ZM204.225 68.42H211.745V69.78H204.225V68.42ZM236.617 71.16H240.697V72.54H236.617V71.16ZM240.177 66.48H241.837V77.26H240.177V66.48ZM235.897 77.8C239.617 77.8 241.917 79.06 241.917 81.18C241.917 83.32 239.617 84.54 235.897 84.54C232.157 84.54 229.857 83.32 229.857 81.18C229.857 79.06 232.157 77.8 235.897 77.8ZM235.897 79.1C233.177 79.1 231.517 79.86 231.517 81.18C231.517 82.48 233.177 83.24 235.897 83.24C238.617 83.24 240.277 82.48 240.277 81.18C240.277 79.86 238.617 79.1 235.897 79.1ZM231.577 68.3H232.937V69.76C232.937 73.1 230.897 75.96 227.897 77.08L227.037 75.76C229.717 74.78 231.577 72.36 231.577 69.76V68.3ZM231.897 68.3H233.237V69.76C233.237 72.1 234.997 74.34 237.617 75.26L236.777 76.58C233.837 75.52 231.897 72.8 231.897 69.76V68.3ZM227.537 67.8H237.197V69.16H227.537V67.8ZM245.375 80.88H261.755V82.26H245.375V80.88ZM252.695 76.56H254.355V81.28H252.695V76.56ZM247.295 67.76H248.935V70.98H258.155V67.76H259.795V77H247.295V67.76ZM248.935 72.32V75.64H258.155V72.32H248.935ZM263.753 74.88H280.153V76.14H263.753V74.88ZM265.693 77.6H278.093V81.46H267.393V83.58H265.753V80.32H276.473V78.78H265.693V77.6ZM265.753 83.14H278.673V84.34H265.753V83.14ZM265.833 67H278.033V70.76H267.513V72.72H265.873V69.64H276.413V68.18H265.833V67ZM265.873 72.32H278.373V73.52H265.873V72.32ZM294.705 68.26H296.145V69.02C296.145 72.26 292.705 74.64 289.065 75.26L288.425 73.94C291.605 73.48 294.705 71.4 294.705 69.02V68.26ZM295.125 68.26H296.545V69.02C296.545 71.4 299.665 73.48 302.825 73.94L302.205 75.26C298.545 74.64 295.125 72.26 295.125 69.02V68.26ZM294.765 77.66H296.405V84.56H294.765V77.66ZM287.465 76.78H303.805V78.14H287.465V76.78ZM288.985 67.6H302.225V68.94H288.985V67.6ZM307.583 68.28H319.223V69.66H307.583V68.28ZM305.863 80.66H322.203V82.04H305.863V80.66ZM312.203 74.2H313.863V81.34H312.203V74.2ZM318.603 68.28H320.243V70.08C320.243 72.32 320.243 74.8 319.583 78.46L317.923 78.24C318.603 74.78 318.603 72.24 318.603 70.08V68.28ZM336.622 66.48H338.282V77.06H336.622V66.48ZM337.822 70.82H340.962V72.22H337.822V70.82ZM325.002 67.48H326.642V70.24H331.742V67.48H333.362V75.92H325.002V67.48ZM326.642 71.56V74.58H331.742V71.56H326.642ZM326.982 78.04H338.422V79.38H328.642V83.92H326.982V78.04ZM326.982 82.96H338.782V84.32H326.982V82.96ZM344.86 71.9H357.14V73.26H344.86V71.9ZM342.64 75.68H359.04V77.04H342.64V75.68ZM344.86 67.14H346.5V72.58H344.86V67.14ZM344.74 82.76H357.24V84.12H344.74V82.76ZM344.74 78.84H346.38V83.12H344.74V78.84ZM378.572 66.46H380.252V84.58H378.572V66.46ZM379.852 73.6H383.212V75H379.852V73.6ZM367.112 78.68H368.532C371.872 78.68 374.212 78.56 376.912 78.06L377.092 79.46C374.312 79.98 371.932 80.08 368.532 80.08H367.112V78.68ZM367.112 68.22H375.512V69.58H368.752V79.3H367.112V68.22ZM397.91 66.46H399.57V84.58H397.91V66.46ZM385.79 78.84H387.29C390.31 78.84 393.01 78.72 396.21 78.2L396.39 79.56C393.11 80.1 390.39 80.22 387.29 80.22H385.79V78.84ZM385.75 68.16H394.11V74.62H387.45V79.36H385.79V73.26H392.43V69.52H385.75V68.16ZM404.975 83.1349C404.587 83.1349 404.253 82.9976 403.974 82.723C403.694 82.4437 403.555 82.1075 403.555 81.7145C403.555 81.3262 403.694 80.9948 403.974 80.7202C404.253 80.4408 404.587 80.3011 404.975 80.3011C405.363 80.3011 405.697 80.4408 405.977 80.7202C406.256 80.9948 406.396 81.3262 406.396 81.7145C406.396 81.9749 406.329 82.214 406.197 82.4318C406.069 82.6449 405.898 82.8153 405.685 82.9432C405.472 83.071 405.236 83.1349 404.975 83.1349ZM108.1 106.8H120.52V108.16H108.1V106.8ZM108.1 102.98H109.76V107.28H108.1V102.98ZM105.98 100.18H122.38V101.54H105.98V100.18ZM113.32 97.14H114.96V100.68H113.32V97.14ZM113.3 90.94H114.74V91.76C114.74 95.12 111.34 97.6 107.7 98.3L107.04 96.98C110.26 96.46 113.3 94.28 113.3 91.76V90.94ZM113.56 90.94H114.98V91.76C114.98 94.28 118.06 96.46 121.24 96.98L120.58 98.3C116.98 97.58 113.56 95.12 113.56 91.76V90.94ZM128.778 91.42H130.158V93.26C130.158 96.74 128.198 99.62 125.178 100.8L124.298 99.46C127.018 98.46 128.778 96.02 128.778 93.26V91.42ZM129.078 91.42H130.438V93.38C130.438 95.82 132.238 98.08 134.838 98.98L133.958 100.28C131.058 99.2 129.078 96.52 129.078 93.38V91.42ZM136.758 90.48H138.418V101.44H136.758V90.48ZM137.958 95.14H141.098V96.54H137.958V95.14ZM132.658 101.94C136.358 101.94 138.598 103.16 138.598 105.24C138.598 107.32 136.358 108.52 132.658 108.52C128.958 108.52 126.718 107.32 126.718 105.24C126.718 103.16 128.958 101.94 132.658 101.94ZM132.658 103.26C129.978 103.26 128.338 103.98 128.338 105.24C128.338 106.5 129.978 107.22 132.658 107.22C135.338 107.22 136.978 106.5 136.978 105.24C136.978 103.98 135.338 103.26 132.658 103.26ZM152.85 92.04H154.21V95.28C154.21 99.44 151.97 103.3 149.01 104.8L147.99 103.44C150.67 102.16 152.85 98.7 152.85 95.28V92.04ZM153.13 92.04H154.49V95.28C154.49 98.58 156.65 101.9 159.33 103.14L158.33 104.46C155.39 103.02 153.13 99.3 153.13 95.28V92.04ZM161.21 90.46H162.87V108.58H161.21V90.46ZM176.601 91.86C179.221 91.86 181.101 94.32 181.101 98.16C181.101 102.02 179.221 104.48 176.601 104.48C173.961 104.48 172.101 102.02 172.101 98.16C172.101 94.32 173.961 91.86 176.601 91.86ZM176.601 93.36C174.861 93.36 173.681 95.24 173.681 98.16C173.681 101.1 174.861 103.02 176.601 103.02C178.341 103.02 179.521 101.1 179.521 98.16C179.521 95.24 178.341 93.36 176.601 93.36ZM185.021 90.46H186.661V108.58H185.021V90.46ZM180.561 97.36H185.741V98.72H180.561V97.36ZM195.3 102.22H196.96V108.14H195.3V102.22ZM203.34 90.5H204.98V108.58H203.34V90.5ZM190.36 103.1L190.16 101.74C193.68 101.74 198.14 101.72 202.08 101.24L202.2 102.46C198.14 103.06 193.8 103.1 190.36 103.1ZM190.82 92.42H201.46V93.74H190.82V92.42ZM196.14 94.54C198.66 94.54 200.38 95.7 200.38 97.52C200.38 99.34 198.66 100.52 196.14 100.52C193.62 100.52 191.9 99.34 191.9 97.52C191.9 95.7 193.62 94.54 196.14 94.54ZM196.14 95.78C194.54 95.78 193.46 96.46 193.46 97.52C193.46 98.58 194.54 99.26 196.14 99.26C197.74 99.26 198.82 98.58 198.82 97.52C198.82 96.46 197.74 95.78 196.14 95.78ZM195.3 90.34H196.96V93.14H195.3V90.34ZM209.318 99.44H210.618C214.178 99.44 215.938 99.38 218.098 99L218.278 100.34C216.038 100.74 214.238 100.8 210.618 100.8H209.318V99.44ZM209.278 91.56H217.078V96.7H210.958V100.26H209.318V95.4H215.438V92.92H209.278V91.56ZM221.778 90.5H223.438V101.6H221.778V90.5ZM218.278 93.16H222.158V94.52H218.278V93.16ZM218.278 96.9H222.158V98.26H218.278V96.9ZM211.338 102.58H223.438V108.6H221.778V103.94H211.338V102.58ZM227.777 92.46H235.957V93.8H227.777V92.46ZM230.597 97.62H232.237V103.74H230.597V97.62ZM235.277 92.46H236.897V93.42C236.897 94.9 236.897 97.26 236.377 100.62L234.737 100.46C235.277 97.2 235.277 94.88 235.277 93.42V92.46ZM239.177 90.48H240.817V108.56H239.177V90.48ZM240.377 98.04H243.717V99.44H240.377V98.04ZM226.977 104.62L226.777 103.22C230.057 103.22 234.417 103.16 238.077 102.7L238.157 103.92C234.417 104.52 230.177 104.6 226.977 104.62ZM255.088 92.04H256.448V95.28C256.448 99.28 254.288 103.18 251.428 104.7L250.408 103.38C253.028 102.06 255.088 98.58 255.088 95.28V92.04ZM255.388 92.04H256.728V95.28C256.728 98.46 258.748 101.76 261.308 103.04L260.288 104.36C257.488 102.86 255.388 99.16 255.388 95.28V92.04ZM262.888 90.48H264.568V108.56H262.888V90.48ZM264.168 97.8H267.528V99.2H264.168V97.8ZM274.206 101.32H275.886V104.3H274.206V101.32ZM282.126 90.48H283.786V108.56H282.126V90.48ZM269.386 105.12L269.166 103.74C272.586 103.72 277.086 103.68 280.986 103.18L281.106 104.4C277.086 105.08 272.726 105.12 269.386 105.12ZM269.546 92.68H280.526V94.02H269.546V92.68ZM275.026 95.06C277.626 95.06 279.386 96.38 279.386 98.4C279.386 100.44 277.626 101.74 275.026 101.74C272.446 101.74 270.686 100.44 270.686 98.4C270.686 96.38 272.446 95.06 275.026 95.06ZM275.026 96.34C273.406 96.34 272.266 97.16 272.266 98.4C272.266 99.64 273.406 100.46 275.026 100.46C276.666 100.46 277.806 99.64 277.806 98.4C277.806 97.16 276.666 96.34 275.026 96.34ZM274.206 90.48H275.866V93.42H274.206V90.48ZM292.005 91.5H293.385V93.36C293.385 96.86 291.405 99.72 288.305 100.88L287.445 99.52C290.205 98.54 292.005 96.12 292.005 93.36V91.5ZM292.305 91.5H293.665V93.3C293.665 95.86 295.425 98.12 298.065 99.04L297.165 100.34C294.245 99.24 292.305 96.58 292.305 93.3V91.5ZM300.665 90.48H302.325V101.18H300.665V90.48ZM296.385 101.7C300.105 101.7 302.405 102.96 302.405 105.12C302.405 107.28 300.105 108.52 296.385 108.52C292.645 108.52 290.345 107.28 290.345 105.12C290.345 102.96 292.645 101.7 296.385 101.7ZM296.385 103.02C293.665 103.02 292.005 103.8 292.005 105.12C292.005 106.44 293.665 107.22 296.385 107.22C299.105 107.22 300.765 106.44 300.765 105.12C300.765 103.8 299.105 103.02 296.385 103.02ZM296.745 94.3H301.025V95.68H296.745V94.3ZM313.183 97.5H316.603V98.88H313.183V97.5ZM319.623 90.48H321.223V108.56H319.623V90.48ZM316.043 90.86H317.623V107.66H316.043V90.86ZM309.923 91.98C312.263 91.98 313.783 94.4 313.783 98.28C313.783 102.16 312.263 104.58 309.923 104.58C307.583 104.58 306.083 102.16 306.083 98.28C306.083 94.4 307.583 91.98 309.923 91.98ZM309.923 93.52C308.503 93.52 307.603 95.36 307.603 98.28C307.603 101.2 308.503 103.04 309.923 103.04C311.363 103.04 312.263 101.2 312.263 98.28C312.263 95.36 311.363 93.52 309.923 93.52ZM329.535 99.72H345.915V101.08H329.535V99.72ZM337.015 100.56H338.675V104.72H337.015V100.56ZM331.635 91.32H343.795V97.68H331.635V91.32ZM342.155 92.66H333.255V96.34H342.155V92.66ZM331.615 106.8H344.095V108.16H331.615V106.8ZM331.615 102.98H333.255V107.28H331.615V102.98ZM361.693 90.48H363.293V108.56H361.693V90.48ZM355.113 96.96H358.573V98.34H355.113V96.96ZM358.073 90.9H359.633V107.64H358.073V90.9ZM351.633 93.28H352.913V95.58C352.913 99.54 351.393 103.28 348.733 104.96L347.713 103.72C350.233 102.2 351.633 98.9 351.633 95.58V93.28ZM351.973 93.28H353.253V95.58C353.253 98.72 354.613 101.86 357.093 103.3L356.073 104.52C353.433 102.92 351.973 99.36 351.973 95.58V93.28ZM348.213 92.58H356.473V93.96H348.213V92.58ZM378.572 90.46H380.252V108.56H378.572V90.46ZM379.792 97.8H383.132V99.18H379.792V97.8ZM373.952 92.42H375.572C375.572 97.56 373.212 102.2 367.372 105.14L366.452 103.86C371.452 101.32 373.952 97.46 373.952 92.68V92.42ZM367.292 92.42H374.812V93.78H367.292V92.42ZM393.823 91.6H395.143V94.02C395.143 96.72 393.583 99.56 390.923 100.74L390.023 99.44C392.403 98.4 393.823 96.06 393.823 94.02V91.6ZM394.083 91.6H395.403V94.02C395.403 96.02 396.763 98.06 399.083 98.96L398.183 100.22C395.583 99.18 394.083 96.68 394.083 94.02V91.6ZM403.683 90.5H405.263V101.64H403.683V90.5ZM400.803 95.32H404.223V96.68H400.803V95.32ZM399.803 90.84H401.383V101.06H399.803V90.84ZM399.323 102.04C403.043 102.04 405.363 103.24 405.363 105.3C405.363 107.34 403.043 108.52 399.323 108.52C395.583 108.52 393.303 107.34 393.303 105.3C393.303 103.24 395.583 102.04 399.323 102.04ZM399.323 103.34C396.603 103.34 394.923 104.06 394.923 105.3C394.923 106.52 396.603 107.24 399.323 107.24C402.043 107.24 403.703 106.52 403.703 105.3C403.703 104.06 402.043 103.34 399.323 103.34ZM421.581 90.48H423.241V103.62H421.581V90.48ZM416.261 91.84H418.001C418.001 96.54 414.701 100.02 409.401 101.68L408.721 100.32C413.381 98.9 416.261 96.08 416.261 92.54V91.84ZM409.681 91.84H417.201V93.22H409.681V91.84ZM411.521 106.8H423.701V108.18H411.521V106.8ZM411.521 102.56H413.181V107.3H411.521V102.56ZM439.06 90.46H440.74V108.58H439.06V90.46ZM440.34 97.6H443.7V99H440.34V97.6ZM427.6 102.68H429.02C432.36 102.68 434.7 102.56 437.4 102.06L437.58 103.46C434.8 103.98 432.42 104.08 429.02 104.08H427.6V102.68ZM427.6 92.22H436V93.58H429.24V103.3H427.6V92.22ZM447.065 107.135C446.677 107.135 446.343 106.998 446.064 106.723C445.784 106.444 445.645 106.107 445.645 105.714C445.645 105.326 445.784 104.995 446.064 104.72C446.343 104.441 446.677 104.301 447.065 104.301C447.453 104.301 447.787 104.441 448.066 104.72C448.346 104.995 448.485 105.326 448.485 105.714C448.485 105.975 448.419 106.214 448.287 106.432C448.159 106.645 447.988 106.815 447.775 106.943C447.562 107.071 447.325 107.135 447.065 107.135Z" fill="black"/>
</g>
<defs>
<filter id="filter0_d_228_7" x="12.6011" y="0" width="585.399" height="179.204" filterUnits="userSpaceOnUse" color-interpolation-filters="sRGB">
<feFlood flood-opacity="0" result="BackgroundImageFix"/>
<feColorMatrix in="SourceAlpha" type="matrix" values="0 0 0 0 0 0 0 0 0 0 0 0 0 0 0 0 0 0 127 0" result="hardAlpha"/>
<feOffset dy="4"/>
<feGaussianBlur stdDeviation="2"/>
<feComposite in2="hardAlpha" operator="out"/>
<feColorMatrix type="matrix" values="0 0 0 0 0 0 0 0 0 0 0 0 0 0 0 0 0 0 0.25 0"/>
<feBlend mode="normal" in2="BackgroundImageFix" result="effect1_dropShadow_228_7"/>
<feBlend mode="normal" in="SourceGraphic" in2="effect1_dropShadow_228_7" result="shape"/>
</filter>
</defs>
</svg>
