<svg width="635" height="151" viewBox="0 0 635 151" fill="none" xmlns="http://www.w3.org/2000/svg">
<g filter="url(#filter0_d_286_63)">
<path d="M623.54 25.2483L462.9 68.0406L481.33 111.772L623.54 25.2483Z" fill="#C9ECA7"/>
<rect width="526.67" height="132.384" rx="20" transform="matrix(-1 0 0 1 530.67 10.0015)" fill="#C9ECA7"/>
<path d="M26.9355 33.2495H37.5675V35.7935H26.9355V33.2495ZM32.2875 36.7775C35.1195 36.7775 37.1595 38.9615 37.1595 42.0815C37.1595 45.1775 35.1195 47.3615 32.2875 47.3615C29.4795 47.3615 27.4155 45.1775 27.4155 42.0815C27.4155 38.9615 29.4795 36.7775 32.2875 36.7775ZM32.2875 39.4415C31.0875 39.4415 30.2475 40.4015 30.2475 42.0815C30.2475 43.7615 31.0875 44.6975 32.2875 44.6975C33.4875 44.6975 34.3515 43.7615 34.3515 42.0815C34.3515 40.4015 33.4875 39.4415 32.2875 39.4415ZM43.0155 29.9135H46.0635V52.1375H43.0155V29.9135ZM40.3515 38.9375H44.0235V41.5055H40.3515V38.9375ZM38.3595 30.3215H41.3355V51.2015H38.3595V30.3215ZM30.7275 30.5135H33.8715V34.8575H30.7275V30.5135ZM49.7096 32.0015H60.3416V46.7375H49.7096V32.0015ZM57.1976 34.4975H52.8536V44.2175H57.1976V34.4975ZM63.2456 29.9135H66.4616V52.1375H63.2456V29.9135ZM65.7416 38.2895H69.6776V40.9295H65.7416V38.2895Z" fill="black"/>
<path d="M39.3595 65.481H41.0195V75.721H39.3595V65.481ZM40.5595 69.881H43.6995V71.261H40.5595V69.881ZM34.3595 66.641H36.1195C36.1195 71.201 32.9395 74.481 27.6195 75.921L26.9795 74.601C31.6595 73.321 34.3595 70.701 34.3595 67.381V66.641ZM27.7595 66.641H35.2795V67.981H27.7595V66.641ZM29.6395 76.581H41.0195V83.321H29.6395V76.581ZM39.3795 77.921H31.2795V81.961H39.3795V77.921ZM55.0379 70.161H59.118V71.541H55.0379V70.161ZM58.5979 65.481H60.258V76.261H58.5979V65.481ZM54.3179 76.801C58.038 76.801 60.338 78.061 60.338 80.181C60.338 82.321 58.038 83.541 54.3179 83.541C50.5779 83.541 48.2779 82.321 48.2779 80.181C48.2779 78.061 50.5779 76.801 54.3179 76.801ZM54.3179 78.101C51.5979 78.101 49.9379 78.861 49.9379 80.181C49.9379 81.481 51.5979 82.241 54.3179 82.241C57.0379 82.241 58.6979 81.481 58.6979 80.181C58.6979 78.861 57.0379 78.101 54.3179 78.101ZM49.9979 67.301H51.3579V68.761C51.3579 72.101 49.3179 74.961 46.3179 76.081L45.4579 74.761C48.1379 73.781 49.9979 71.361 49.9979 68.761V67.301ZM50.3179 67.301H51.6579V68.761C51.6579 71.101 53.4179 73.341 56.0379 74.261L55.1979 75.581C52.2579 74.521 50.3179 71.801 50.3179 68.761V67.301ZM45.9579 66.801H55.618V68.161H45.9579V66.801ZM64.5964 67.461H72.7764V68.801H64.5964V67.461ZM67.4164 72.621H69.0564V78.741H67.4164V72.621ZM72.0964 67.461H73.7164V68.421C73.7164 69.901 73.7164 72.261 73.1964 75.621L71.5564 75.461C72.0964 72.201 72.0964 69.881 72.0964 68.421V67.461ZM75.9964 65.481H77.6364V83.561H75.9964V65.481ZM77.1964 73.041H80.5364V74.441H77.1964V73.041ZM63.7964 79.621L63.5964 78.221C66.8764 78.221 71.2364 78.161 74.8964 77.701L74.9764 78.921C71.2364 79.521 66.9964 79.601 63.7964 79.621ZM100.648 65.481H102.308V83.561H100.648V65.481ZM95.3478 67.421H96.9878C96.9878 72.661 94.6278 77.241 88.5878 80.201L87.7078 78.861C92.9278 76.341 95.3478 72.501 95.3478 67.701V67.421ZM88.5278 67.421H96.0678V68.781H88.5278V67.421ZM114.766 70.141H119.686V71.501H114.766V70.141ZM108.686 77.161H120.746V83.581H119.086V78.481H108.686V77.161ZM119.086 65.481H120.746V76.141H119.086V65.481ZM110.806 66.481C113.466 66.481 115.466 68.281 115.466 70.841C115.466 73.401 113.466 75.181 110.806 75.181C108.126 75.181 106.146 73.401 106.146 70.841C106.146 68.281 108.126 66.481 110.806 66.481ZM110.806 67.901C109.046 67.901 107.746 69.121 107.746 70.841C107.746 72.561 109.046 73.761 110.806 73.761C112.546 73.761 113.866 72.561 113.866 70.841C113.866 69.121 112.546 67.901 110.806 67.901ZM132.445 65.781C136.425 65.781 138.805 66.901 138.805 68.921C138.805 70.941 136.425 72.061 132.445 72.061C128.445 72.061 126.085 70.941 126.085 68.921C126.085 66.901 128.445 65.781 132.445 65.781ZM132.445 67.041C129.485 67.041 127.785 67.721 127.785 68.921C127.785 70.121 129.485 70.801 132.445 70.801C135.385 70.801 137.085 70.121 137.085 68.921C137.085 67.721 135.385 67.041 132.445 67.041ZM124.265 73.261H140.605V74.601H124.265V73.261ZM126.245 76.141H138.525V80.221H127.925V82.421H126.285V79.021H136.885V77.421H126.245V76.141ZM126.285 82.061H139.065V83.361H126.285V82.061ZM160.336 65.481H161.996V75.721H160.336V65.481ZM161.536 69.901H164.676V71.261H161.536V69.901ZM148.796 73.321H150.196C153.916 73.321 156.016 73.221 158.436 72.721L158.616 74.081C156.136 74.581 153.996 74.701 150.196 74.701H148.796V73.321ZM148.796 66.681H156.756V68.041H150.436V74.101H148.796V66.681ZM150.636 76.681H161.996V83.321H150.636V76.681ZM160.376 78.021H152.256V81.961H160.376V78.021ZM178.755 65.481H180.415V76.221H178.755V65.481ZM179.935 70.181H183.075V71.561H179.935V70.181ZM174.635 76.601C178.295 76.601 180.575 77.901 180.575 80.081C180.575 82.261 178.295 83.541 174.635 83.541C170.975 83.541 168.695 82.261 168.695 80.081C168.695 77.901 170.975 76.601 174.635 76.601ZM174.635 77.961C171.955 77.961 170.315 78.721 170.315 80.081C170.315 81.401 171.955 82.181 174.635 82.181C177.315 82.181 178.955 81.401 178.955 80.081C178.955 78.721 177.315 77.961 174.635 77.961ZM167.175 73.441H168.575C172.315 73.441 174.415 73.321 176.835 72.821L177.035 74.181C174.535 74.681 172.395 74.801 168.575 74.801H167.175V73.441ZM167.175 66.861H175.155V68.221H168.815V74.321H167.175V66.861ZM197.013 65.481H198.673V83.561H197.013V65.481ZM198.273 72.901H201.633V74.301H198.273V72.901ZM184.673 68.361H195.333V69.721H184.673V68.361ZM190.073 71.221C192.633 71.221 194.473 72.941 194.473 75.381C194.473 77.821 192.633 79.541 190.073 79.541C187.533 79.541 185.673 77.821 185.673 75.381C185.673 72.941 187.533 71.221 190.073 71.221ZM190.073 72.601C188.433 72.601 187.253 73.741 187.253 75.381C187.253 77.001 188.433 78.161 190.073 78.161C191.713 78.161 192.893 77.001 192.893 75.381C192.893 73.741 191.713 72.601 190.073 72.601ZM189.213 65.701H190.873V68.981H189.213V65.701ZM205.371 70.901H217.651V72.261H205.371V70.901ZM203.151 74.681H219.551V76.041H203.151V74.681ZM205.371 66.141H207.011V71.581H205.371V66.141ZM205.251 81.761H217.751V83.121H205.251V81.761ZM205.251 77.841H206.891V82.121H205.251V77.841ZM226.843 76.181H243.243V77.541H226.843V76.181ZM234.163 76.821H235.803V83.561H234.163V76.821ZM228.903 66.201H230.563V68.681H239.503V66.201H241.143V74.021H228.903V66.201ZM230.563 70.021V72.681H239.503V70.021H230.563ZM251.161 66.321C253.861 66.321 255.781 67.821 255.781 70.041C255.781 72.241 253.861 73.781 251.161 73.781C248.481 73.781 246.561 72.241 246.561 70.041C246.561 67.821 248.481 66.321 251.161 66.321ZM251.161 67.701C249.401 67.701 248.141 68.661 248.141 70.041C248.141 71.441 249.401 72.381 251.161 72.381C252.921 72.381 254.181 71.441 254.181 70.041C254.181 68.661 252.921 67.701 251.161 67.701ZM250.421 75.781H252.081V83.001H250.421V75.781ZM258.421 65.481H260.061V83.581H258.421V65.481ZM245.441 76.681L245.221 75.281C248.581 75.281 253.161 75.241 257.141 74.641L257.261 75.881C253.181 76.621 248.741 76.681 245.441 76.681ZM265.486 82.1359C265.098 82.1359 264.764 81.9986 264.485 81.724C264.206 81.4446 264.066 81.1085 264.066 80.7155C264.066 80.3272 264.206 79.9958 264.485 79.7211C264.764 79.4418 265.098 79.3021 265.486 79.3021C265.875 79.3021 266.208 79.4418 266.488 79.7211C266.767 79.9958 266.907 80.3272 266.907 80.7155C266.907 80.9759 266.841 81.215 266.708 81.4328C266.58 81.6459 266.41 81.8163 266.197 81.9442C265.984 82.072 265.747 82.1359 265.486 82.1359ZM40.1195 89.461H41.7795V107.581H40.1195V89.461ZM32.2395 90.861C34.9195 90.861 36.8395 93.321 36.8395 97.161C36.8395 101.021 34.9195 103.481 32.2395 103.481C29.5795 103.481 27.6595 101.021 27.6595 97.161C27.6595 93.321 29.5795 90.861 32.2395 90.861ZM32.2395 92.361C30.4795 92.361 29.2395 94.241 29.2395 97.161C29.2395 100.101 30.4795 102.021 32.2395 102.021C34.0195 102.021 35.2395 100.101 35.2395 97.161C35.2395 94.241 34.0195 92.361 32.2395 92.361ZM47.3379 90.341H58.9779V91.681H47.3379V90.341ZM45.3979 97.961H61.718V99.301H45.3979V97.961ZM52.0979 94.321H53.7379V98.161H52.0979V94.321ZM58.018 90.341H59.6379V91.621C59.6379 92.981 59.6379 94.601 59.1779 96.701L57.558 96.521C58.018 94.441 58.018 92.961 58.018 91.621V90.341ZM52.6579 100.721H54.0779V101.521C54.0779 104.741 50.8979 106.881 47.1979 107.501L46.5579 106.181C49.8779 105.721 52.6579 103.901 52.6579 101.521V100.721ZM52.8979 100.721H54.3179V101.521C54.3179 103.901 57.1179 105.721 60.418 106.181L59.798 107.501C56.0579 106.881 52.8979 104.741 52.8979 101.521V100.721ZM71.1164 96.501H74.5364V97.881H71.1164V96.501ZM77.5564 89.481H79.1564V107.561H77.5564V89.481ZM73.9764 89.861H75.5564V106.661H73.9764V89.861ZM67.8564 90.981C70.1964 90.981 71.7164 93.401 71.7164 97.281C71.7164 101.161 70.1964 103.581 67.8564 103.581C65.5164 103.581 64.0164 101.161 64.0164 97.281C64.0164 93.401 65.5164 90.981 67.8564 90.981ZM67.8564 92.521C66.4364 92.521 65.5364 94.361 65.5364 97.281C65.5364 100.201 66.4364 102.041 67.8564 102.041C69.2964 102.041 70.1964 100.201 70.1964 97.281C70.1964 94.361 69.2964 92.521 67.8564 92.521ZM87.4678 98.721H103.848V100.081H87.4678V98.721ZM94.9478 99.561H96.6078V103.721H94.9478V99.561ZM89.5678 90.321H101.728V96.681H89.5678V90.321ZM100.088 91.661H91.1878V95.341H100.088V91.661ZM89.5478 105.801H102.028V107.161H89.5478V105.801ZM89.5478 101.981H91.1878V106.281H89.5478V101.981ZM119.626 89.481H121.226V107.561H119.626V89.481ZM113.046 95.961H116.506V97.341H113.046V95.961ZM116.006 89.901H117.566V106.641H116.006V89.901ZM109.566 92.281H110.846V94.581C110.846 98.541 109.326 102.281 106.666 103.961L105.646 102.721C108.166 101.201 109.566 97.901 109.566 94.581V92.281ZM109.906 92.281H111.186V94.581C111.186 97.721 112.546 100.861 115.026 102.301L114.006 103.521C111.366 101.921 109.906 98.361 109.906 94.581V92.281ZM106.146 91.581H114.406V92.961H106.146V91.581ZM136.505 89.461H138.185V107.561H136.505V89.461ZM137.725 96.801H141.065V98.181H137.725V96.801ZM131.885 91.421H133.505C133.505 96.561 131.145 101.201 125.305 104.141L124.385 102.861C129.385 100.321 131.885 96.461 131.885 91.681V91.421ZM125.225 91.421H132.745V92.781H125.225V91.421ZM151.756 90.601H153.076V93.021C153.076 95.721 151.516 98.561 148.856 99.741L147.956 98.441C150.336 97.401 151.756 95.061 151.756 93.021V90.601ZM152.016 90.601H153.336V93.021C153.336 95.021 154.696 97.061 157.016 97.961L156.116 99.221C153.516 98.181 152.016 95.681 152.016 93.021V90.601ZM161.616 89.501H163.196V100.641H161.616V89.501ZM158.736 94.321H162.156V95.681H158.736V94.321ZM157.736 89.841H159.316V100.061H157.736V89.841ZM157.256 101.041C160.976 101.041 163.296 102.241 163.296 104.301C163.296 106.341 160.976 107.521 157.256 107.521C153.516 107.521 151.236 106.341 151.236 104.301C151.236 102.241 153.516 101.041 157.256 101.041ZM157.256 102.341C154.536 102.341 152.856 103.061 152.856 104.301C152.856 105.521 154.536 106.241 157.256 106.241C159.976 106.241 161.636 105.521 161.636 104.301C161.636 103.061 159.976 102.341 157.256 102.341ZM179.535 89.481H181.195V107.561H179.535V89.481ZM174.235 91.421H175.875C175.875 96.661 173.515 101.241 167.475 104.201L166.595 102.861C171.815 100.341 174.235 96.501 174.235 91.701V91.421ZM167.415 91.421H174.955V92.781H167.415V91.421ZM193.433 92.661H198.493V94.021H193.433V92.661ZM193.433 96.521H198.533V97.901H193.433V96.521ZM185.593 91.041H193.853V99.521H185.593V91.041ZM192.213 92.381H187.213V98.181H192.213V92.381ZM197.973 89.501H199.633V102.701H197.973V89.501ZM188.013 105.801H200.073V107.161H188.013V105.801ZM188.013 101.501H189.673V106.421H188.013V101.501ZM213.884 97.881H215.524V101.281H213.884V97.881ZM211.284 100.761H212.944V102.701H221.524V100.761H223.164V107.321H211.284V100.761ZM212.944 104.001V105.981H221.524V104.001H212.944ZM221.504 89.481H223.164V99.861H221.504V89.481ZM208.704 98.761L208.484 97.401C211.864 97.401 216.364 97.381 220.304 96.861L220.424 98.061C216.384 98.741 212.004 98.761 208.704 98.761ZM213.664 89.921H215.004V90.821C215.004 93.441 213.024 95.501 210.004 96.261L209.264 95.001C211.904 94.361 213.664 92.721 213.664 90.821V89.921ZM214.024 89.921H215.384V90.821C215.384 92.661 217.164 94.181 219.744 94.721L219.044 96.001C216.044 95.301 214.024 93.361 214.024 90.821V89.921ZM240.623 89.481H242.223V107.561H240.623V89.481ZM232.783 96.861H237.343V98.201H232.783V96.861ZM236.863 89.941H238.423V106.641H236.863V89.941ZM233.003 91.761H234.603C234.603 96.501 232.703 100.761 227.823 103.661L226.843 102.481C231.103 99.921 233.003 96.321 233.003 92.061V91.761ZM227.643 91.761H233.623V93.121H227.643V91.761ZM257.874 98.161H259.514V100.921H257.874V98.161ZM252.714 89.761H254.354V91.441H263.094V89.761H264.754V95.721H252.714V89.761ZM254.354 92.721V94.441H263.094V92.721H254.354ZM250.534 97.201H266.874V98.541H250.534V97.201ZM252.514 100.301H264.794V104.321H254.194V106.561H252.554V103.121H263.154V101.561H252.514V100.301ZM252.554 106.081H265.334V107.361H252.554V106.081ZM281.313 89.461H282.973V102.781H281.313V89.461ZM282.453 94.961H285.653V96.341H282.453V94.961ZM271.713 105.801H283.793V107.161H271.713V105.801ZM271.713 101.421H273.373V106.341H271.713V101.421ZM273.993 90.741C276.693 90.741 278.713 92.601 278.713 95.201C278.713 97.821 276.693 99.661 273.993 99.661C271.293 99.661 269.273 97.821 269.273 95.201C269.273 92.601 271.293 90.741 273.993 90.741ZM273.993 92.201C272.233 92.201 270.893 93.441 270.893 95.201C270.893 96.981 272.233 98.201 273.993 98.201C275.753 98.201 277.093 96.981 277.093 95.201C277.093 93.441 275.753 92.201 273.993 92.201ZM287.311 92.561H296.271V93.921H287.311V92.561ZM291.791 95.121C294.051 95.121 295.691 96.821 295.691 99.261C295.691 101.681 294.051 103.381 291.791 103.381C289.551 103.381 287.911 101.681 287.911 99.261C287.911 96.821 289.551 95.121 291.791 95.121ZM291.791 96.541C290.411 96.541 289.411 97.661 289.411 99.261C289.411 100.861 290.411 101.981 291.791 101.981C293.191 101.981 294.211 100.861 294.211 99.261C294.211 97.661 293.191 96.541 291.791 96.541ZM301.051 89.481H302.651V107.561H301.051V89.481ZM298.171 97.081H301.591V98.461H298.171V97.081ZM297.191 89.881H298.751V106.681H297.191V89.881ZM290.991 90.001H292.631V93.401H290.991V90.001ZM310.53 92.061H311.87V95.001C311.87 98.821 309.57 102.661 306.69 104.081L305.73 102.761C308.35 101.521 310.53 98.121 310.53 95.001V92.061ZM310.85 92.061H312.19V95.001C312.19 98.061 314.37 101.181 317.03 102.321L316.09 103.641C313.17 102.281 310.85 98.761 310.85 95.001V92.061ZM306.33 91.321H316.43V92.721H306.33V91.321ZM318.87 89.481H320.53V107.561H318.87V89.481ZM325.868 91.281H337.508V92.661H325.868V91.281ZM324.148 103.661H340.488V105.041H324.148V103.661ZM330.488 97.201H332.148V104.341H330.488V97.201ZM336.888 91.281H338.528V93.081C338.528 95.321 338.528 97.801 337.868 101.461L336.208 101.241C336.888 97.781 336.888 95.241 336.888 93.081V91.281ZM347.819 99.841H364.219V101.201H347.819V99.841ZM355.139 100.681H356.779V107.561H355.139V100.681ZM355.979 90.201C359.759 90.201 362.299 91.741 362.299 94.161C362.299 96.581 359.759 98.121 355.979 98.121C352.219 98.121 349.659 96.581 349.659 94.161C349.659 91.741 352.219 90.201 355.979 90.201ZM355.979 91.541C353.219 91.541 351.339 92.561 351.339 94.161C351.339 95.761 353.219 96.781 355.979 96.781C358.739 96.781 360.599 95.761 360.599 94.161C360.599 92.561 358.739 91.541 355.979 91.541ZM373.558 97.981H375.198V100.761H373.558V97.981ZM374.398 89.701C378.378 89.701 380.758 90.801 380.758 92.821C380.758 94.841 378.378 95.961 374.398 95.961C370.398 95.961 368.038 94.841 368.038 92.821C368.038 90.801 370.398 89.701 374.398 89.701ZM374.398 90.961C371.438 90.961 369.738 91.641 369.738 92.821C369.738 94.021 371.438 94.701 374.398 94.701C377.338 94.701 379.038 94.021 379.038 92.821C379.038 91.641 377.338 90.961 374.398 90.961ZM366.218 97.121H382.558V98.481H366.218V97.121ZM368.198 100.141H380.478V104.221H369.878V106.421H368.238V103.021H378.838V101.421H368.198V100.141ZM368.238 106.061H381.018V107.361H368.238V106.061ZM384.616 98.081H400.956V99.421H384.616V98.081ZM392.776 100.981C396.636 100.981 398.976 102.181 398.976 104.261C398.976 106.341 396.636 107.521 392.776 107.521C388.916 107.521 386.576 106.341 386.576 104.261C386.576 102.181 388.916 100.981 392.776 100.981ZM392.776 102.301C389.956 102.301 388.256 103.001 388.256 104.261C388.256 105.501 389.956 106.221 392.776 106.221C395.616 106.221 397.296 105.501 397.296 104.261C397.296 103.001 395.616 102.301 392.776 102.301ZM391.716 91.121H393.196V91.661C393.196 94.561 389.876 96.541 386.136 96.981L385.536 95.681C388.776 95.321 391.716 93.701 391.716 91.661V91.121ZM392.416 91.121H393.876V91.661C393.876 93.701 396.816 95.321 400.056 95.681L399.456 96.981C395.716 96.541 392.416 94.561 392.416 91.661V91.121ZM386.116 90.401H399.496V91.741H386.116V90.401ZM416.155 89.461H417.815V107.581H416.155V89.461ZM408.275 90.861C410.955 90.861 412.875 93.321 412.875 97.161C412.875 101.021 410.955 103.481 408.275 103.481C405.615 103.481 403.695 101.021 403.695 97.161C403.695 93.321 405.615 90.861 408.275 90.861ZM408.275 92.361C406.515 92.361 405.275 94.241 405.275 97.161C405.275 100.101 406.515 102.021 408.275 102.021C410.055 102.021 411.275 100.101 411.275 97.161C411.275 94.241 410.055 92.361 408.275 92.361ZM431.226 92.461H432.586V93.241C432.586 96.321 430.546 98.821 427.506 99.781L426.726 98.481C429.406 97.661 431.226 95.601 431.226 93.241V92.461ZM431.526 92.461H432.886V93.241C432.886 95.401 434.646 97.361 437.306 98.141L436.526 99.421C433.506 98.521 431.526 96.121 431.526 93.241V92.461ZM427.226 91.581H436.866V92.921H427.226V91.581ZM431.226 89.401H432.886V92.141H431.226V89.401ZM439.086 89.481H440.746V99.981H439.086V89.481ZM440.286 93.941H443.426V95.321H440.286V93.941ZM434.266 101.481H435.686V101.961C435.686 104.801 432.686 106.901 429.146 107.501L428.506 106.221C431.626 105.741 434.266 103.981 434.266 101.961V101.481ZM434.586 101.481H436.006V101.961C436.006 103.941 438.686 105.741 441.746 106.241L441.126 107.521C437.586 106.921 434.586 104.741 434.586 101.961V101.481ZM429.206 100.961H441.066V102.301H429.206V100.961ZM449.925 90.861C452.585 90.861 454.465 93.321 454.465 97.161C454.465 101.021 452.585 103.481 449.925 103.481C447.265 103.481 445.385 101.021 445.385 97.161C445.385 93.321 447.265 90.861 449.925 90.861ZM449.925 92.361C448.165 92.361 446.965 94.241 446.965 97.161C446.965 100.101 448.165 102.021 449.925 102.021C451.665 102.021 452.885 100.101 452.885 97.161C452.885 94.241 451.665 92.361 449.925 92.361ZM457.345 89.481H459.025V107.561H457.345V89.481ZM458.625 96.701H461.985V98.101H458.625V96.701ZM470.843 95.461H472.483V97.901H470.843V95.461ZM471.683 89.701C475.663 89.701 478.043 90.801 478.043 92.821C478.043 94.841 475.663 95.961 471.683 95.961C467.683 95.961 465.323 94.841 465.323 92.821C465.323 90.801 467.683 89.701 471.683 89.701ZM471.683 90.961C468.723 90.961 467.023 91.641 467.023 92.821C467.023 94.021 468.723 94.701 471.683 94.701C474.623 94.701 476.323 94.021 476.323 92.821C476.323 91.641 474.623 90.961 471.683 90.961ZM463.503 97.301H479.843V98.661H463.503V97.301ZM465.483 100.141H477.763V104.241H467.163V106.441H465.523V103.021H476.123V101.441H465.483V100.141ZM465.523 106.061H478.303V107.361H465.523V106.061ZM31.7195 121.961H33.3795V124.281H31.7195V121.961ZM39.3395 113.501H40.9995V125.621H39.3395V113.501ZM40.2995 118.961H43.6395V120.341H40.2995V118.961ZM27.0995 125.101L26.8795 123.741C30.1195 123.741 34.5195 123.741 38.2595 123.201L38.3995 124.381C34.5395 125.061 30.2595 125.081 27.0995 125.101ZM29.1195 126.521H40.9995V131.561H39.3395V127.841H29.1195V126.521ZM27.3395 115.121H37.7195V116.361H27.3395V115.121ZM32.5395 117.061C35.0795 117.061 36.7395 118.081 36.7395 119.741C36.7395 121.401 35.0795 122.421 32.5395 122.421C29.9795 122.421 28.3195 121.401 28.3195 119.741C28.3195 118.081 29.9795 117.061 32.5395 117.061ZM32.5395 118.201C30.9195 118.201 29.8795 118.781 29.8795 119.741C29.8795 120.661 30.9195 121.261 32.5395 121.261C34.1395 121.261 35.1795 120.661 35.1795 119.741C35.1795 118.781 34.1395 118.201 32.5395 118.201ZM31.7195 113.341H33.3795V115.721H31.7195V113.341ZM45.3779 121.721H61.7779V123.001H45.3779V121.721ZM47.3179 124.621H59.7179V128.481H49.0179V130.601H47.3779V127.341H58.098V125.801H47.3179V124.621ZM47.3779 130.161H60.2979V131.361H47.3779V130.161ZM47.4579 113.981H59.6579V117.741H49.1379V119.701H47.4979V116.621H58.038V115.161H47.4579V113.981ZM47.4979 119.281H59.9979V120.481H47.4979V119.281ZM49.7979 122.221H51.4379V125.361H49.7979V122.221ZM55.718 122.221H57.3579V125.361H55.718V122.221ZM76.9164 113.461H78.5764V131.581H76.9164V113.461ZM69.0364 114.861C71.7164 114.861 73.6364 117.321 73.6364 121.161C73.6364 125.021 71.7164 127.481 69.0364 127.481C66.3764 127.481 64.4564 125.021 64.4564 121.161C64.4564 117.321 66.3764 114.861 69.0364 114.861ZM69.0364 116.361C67.2764 116.361 66.0364 118.241 66.0364 121.161C66.0364 124.101 67.2764 126.021 69.0364 126.021C70.8164 126.021 72.0364 124.101 72.0364 121.161C72.0364 118.241 70.8164 116.361 69.0364 116.361ZM89.7078 118.101H101.988V119.441H89.7078V118.101ZM89.7078 113.881H91.3478V118.961H89.7078V113.881ZM87.4878 121.721H103.828V123.041H87.4878V121.721ZM94.8278 118.981H96.4678V122.621H94.8278V118.981ZM89.3078 124.841H102.028V126.181H89.3078V124.841ZM89.1278 129.981H102.188V131.321H89.1278V129.981ZM92.0478 125.241H93.6878V130.601H92.0478V125.241ZM97.6278 125.241H99.2678V130.601H97.6278V125.241ZM110.686 114.861C113.346 114.861 115.226 117.321 115.226 121.161C115.226 125.021 113.346 127.481 110.686 127.481C108.026 127.481 106.146 125.021 106.146 121.161C106.146 117.321 108.026 114.861 110.686 114.861ZM110.686 116.361C108.926 116.361 107.726 118.241 107.726 121.161C107.726 124.101 108.926 126.021 110.686 126.021C112.426 126.021 113.646 124.101 113.646 121.161C113.646 118.241 112.426 116.361 110.686 116.361ZM118.106 113.481H119.786V131.561H118.106V113.481ZM119.386 120.701H122.746V122.101H119.386V120.701ZM129.085 115.461H130.465V117.301C130.465 120.621 128.425 123.401 125.385 124.501L124.525 123.181C127.245 122.221 129.085 119.881 129.085 117.301V115.461ZM129.405 115.461H130.785V117.301C130.785 119.741 132.665 121.941 135.345 122.841L134.485 124.141C131.485 123.121 129.405 120.481 129.405 117.301V115.461ZM124.965 114.981H134.865V116.321H124.965V114.981ZM137.425 113.501H139.105V126.721H137.425V113.501ZM127.485 129.801H139.645V131.161H127.485V129.801ZM127.485 125.481H129.125V130.401H127.485V125.481ZM154.903 113.461H156.583V131.581H154.903V113.461ZM156.183 120.601H159.543V122.001H156.183V120.601ZM143.443 125.681H144.863C148.203 125.681 150.543 125.561 153.243 125.061L153.423 126.461C150.643 126.981 148.263 127.081 144.863 127.081H143.443V125.681ZM143.443 115.221H151.843V116.581H145.083V126.301H143.443V115.221ZM162.908 130.136C162.52 130.136 162.186 129.999 161.907 129.724C161.627 129.445 161.488 129.108 161.488 128.715C161.488 128.327 161.627 127.996 161.907 127.721C162.186 127.442 162.52 127.302 162.908 127.302C163.297 127.302 163.63 127.442 163.91 127.721C164.189 127.996 164.329 128.327 164.329 128.715C164.329 128.976 164.262 129.215 164.13 129.433C164.002 129.646 163.832 129.816 163.618 129.944C163.405 130.072 163.169 130.136 162.908 130.136Z" fill="black"/>
</g>
<defs>
<filter id="filter0_d_286_63" x="-0.000488281" y="10.0015" width="627.54" height="140.384" filterUnits="userSpaceOnUse" color-interpolation-filters="sRGB">
<feFlood flood-opacity="0" result="BackgroundImageFix"/>
<feColorMatrix in="SourceAlpha" type="matrix" values="0 0 0 0 0 0 0 0 0 0 0 0 0 0 0 0 0 0 127 0" result="hardAlpha"/>
<feOffset dy="4"/>
<feGaussianBlur stdDeviation="2"/>
<feComposite in2="hardAlpha" operator="out"/>
<feColorMatrix type="matrix" values="0 0 0 0 0 0 0 0 0 0 0 0 0 0 0 0 0 0 0.25 0"/>
<feBlend mode="normal" in2="BackgroundImageFix" result="effect1_dropShadow_286_63"/>
<feBlend mode="normal" in="SourceGraphic" in2="effect1_dropShadow_286_63" result="shape"/>
</filter>
</defs>
</svg>
