<svg width="598" height="193" viewBox="0 0 598 193" fill="none" xmlns="http://www.w3.org/2000/svg">
<g filter="url(#filter0_d_286_86)">
<path d="M16.6012 171.203L133.679 53.1821L162.433 90.9348L16.6012 171.203Z" fill="#C9ECA7"/>
<rect x="67.3296" width="526.67" height="132.384" rx="20" fill="#C9ECA7"/>
<path d="M117.864 36.648H123.048V39.216H117.864V36.648ZM121.368 30.936H124.56V47.136H121.368V30.936ZM109.896 50.208H125.064V52.752H109.896V50.208ZM109.896 45.768H113.088V51.72H109.896V45.768ZM111.096 33.84H113.688V35.232C113.688 39.408 111.72 43.272 107.448 44.688L105.84 42.144C109.512 40.944 111.096 38.04 111.096 35.232V33.84ZM111.768 33.84H114.336V35.232C114.336 37.824 115.848 40.584 119.352 41.76L117.792 44.256C113.664 42.888 111.768 39.192 111.768 35.232V33.84ZM106.704 32.424H118.656V34.944H106.704V32.424ZM130.582 38.76H145.846V41.304H130.582V38.76ZM128.038 43.488H148.174V46.056H128.038V43.488ZM136.438 44.976H139.606V53.112H136.438V44.976ZM130.582 32.088H145.63V34.632H133.846V39.984H130.582V32.088ZM159.956 33.432H166.532V35.952H159.956V33.432ZM159.956 38.304H166.532V40.824H159.956V38.304ZM156.26 31.8C159.596 31.8 162.116 34.032 162.116 37.104C162.116 40.224 159.596 42.456 156.26 42.456C152.924 42.456 150.38 40.224 150.38 37.104C150.38 34.032 152.924 31.8 156.26 31.8ZM156.26 34.44C154.628 34.44 153.428 35.448 153.428 37.104C153.428 38.808 154.628 39.792 156.26 39.792C157.892 39.792 159.092 38.808 159.092 37.104C159.092 35.448 157.892 34.44 156.26 34.44ZM165.524 30.912H168.716V42.864H165.524V30.912ZM153.956 43.824H157.124V45.936H165.548V43.824H168.716V52.896H153.956V43.824ZM157.124 48.384V50.352H165.548V48.384H157.124Z" fill="black"/>
<path d="M119.12 66.46H120.78V84.58H119.12V66.46ZM111.24 67.86C113.92 67.86 115.84 70.32 115.84 74.16C115.84 78.02 113.92 80.48 111.24 80.48C108.58 80.48 106.66 78.02 106.66 74.16C106.66 70.32 108.58 67.86 111.24 67.86ZM111.24 69.36C109.48 69.36 108.24 71.24 108.24 74.16C108.24 77.1 109.48 79.02 111.24 79.02C113.02 79.02 114.24 77.1 114.24 74.16C114.24 71.24 113.02 69.36 111.24 69.36ZM128.938 67.5H130.318V69.36C130.318 72.86 128.338 75.72 125.238 76.88L124.378 75.52C127.138 74.54 128.938 72.12 128.938 69.36V67.5ZM129.238 67.5H130.598V69.3C130.598 71.86 132.358 74.12 134.998 75.04L134.098 76.34C131.178 75.24 129.238 72.58 129.238 69.3V67.5ZM137.598 66.48H139.258V77.18H137.598V66.48ZM133.318 77.7C137.038 77.7 139.338 78.96 139.338 81.12C139.338 83.28 137.038 84.52 133.318 84.52C129.578 84.52 127.278 83.28 127.278 81.12C127.278 78.96 129.578 77.7 133.318 77.7ZM133.318 79.02C130.598 79.02 128.938 79.8 128.938 81.12C128.938 82.44 130.598 83.22 133.318 83.22C136.038 83.22 137.698 82.44 137.698 81.12C137.698 79.8 136.038 79.02 133.318 79.02ZM133.678 70.3H137.958V71.68H133.678V70.3ZM150.957 66.78C154.937 66.78 157.317 67.9 157.317 69.92C157.317 71.94 154.937 73.06 150.957 73.06C146.957 73.06 144.597 71.94 144.597 69.92C144.597 67.9 146.957 66.78 150.957 66.78ZM150.957 68.04C147.997 68.04 146.297 68.72 146.297 69.92C146.297 71.12 147.997 71.8 150.957 71.8C153.897 71.8 155.597 71.12 155.597 69.92C155.597 68.72 153.897 68.04 150.957 68.04ZM142.777 74.26H159.117V75.6H142.777V74.26ZM144.757 77.14H157.037V81.22H146.437V83.42H144.797V80.02H155.397V78.42H144.757V77.14ZM144.797 83.06H157.577V84.36H144.797V83.06ZM167.448 67.88H175.448V69.24H167.448V67.88ZM170.168 71.92H171.808V76.44H170.168V71.92ZM174.788 67.88H176.428V68.84C176.428 70.02 176.428 71.82 175.948 74.2L174.328 74.02C174.788 71.64 174.788 70 174.788 68.84V67.88ZM178.888 66.48H180.548V80.1H178.888V66.48ZM179.788 72.36H183.128V73.74H179.788V72.36ZM169.128 82.8H181.128V84.16H169.128V82.8ZM169.128 78.84H170.768V83.22H169.128V78.84ZM166.528 77.22L166.348 75.86C169.568 75.86 174.008 75.78 177.668 75.28L177.788 76.48C174.028 77.14 169.708 77.22 166.528 77.22ZM197.247 66.42H198.907V76.4H197.247V66.42ZM198.207 70.76H201.587V72.16H198.207V70.76ZM187.427 77.32H198.907V81.36H189.107V83.56H187.467V80.16H197.287V78.58H187.427V77.32ZM187.467 83.08H199.567V84.36H187.467V83.08ZM184.927 68.1H195.607V69.4H184.927V68.1ZM190.267 70.2C192.867 70.2 194.587 71.34 194.587 73.18C194.587 75 192.867 76.12 190.267 76.12C187.627 76.12 185.927 75 185.927 73.18C185.927 71.34 187.627 70.2 190.267 70.2ZM190.267 71.42C188.587 71.42 187.507 72.1 187.507 73.18C187.507 74.24 188.587 74.92 190.267 74.92C191.927 74.92 193.007 74.24 193.007 73.18C193.007 72.1 191.927 71.42 190.267 71.42ZM189.427 66.28H191.087V69H189.427V66.28ZM215.525 66.48H217.185V84.56H215.525V66.48ZM216.785 73.9H220.145V75.3H216.785V73.9ZM203.185 69.36H213.845V70.72H203.185V69.36ZM208.585 72.22C211.145 72.22 212.985 73.94 212.985 76.38C212.985 78.82 211.145 80.54 208.585 80.54C206.045 80.54 204.185 78.82 204.185 76.38C204.185 73.94 206.045 72.22 208.585 72.22ZM208.585 73.6C206.945 73.6 205.765 74.74 205.765 76.38C205.765 78 206.945 79.16 208.585 79.16C210.225 79.16 211.405 78 211.405 76.38C211.405 74.74 210.225 73.6 208.585 73.6ZM207.725 66.7H209.385V69.98H207.725V66.7ZM223.884 71.9H236.164V73.26H223.884V71.9ZM221.664 75.68H238.064V77.04H221.664V75.68ZM223.884 67.14H225.524V72.58H223.884V67.14ZM223.764 82.76H236.264V84.12H223.764V82.76ZM223.764 78.84H225.404V83.12H223.764V78.84ZM250.615 74.96H252.275V79.56H250.615V74.96ZM258.475 66.48H260.135V84.56H258.475V66.48ZM245.655 80.66L245.435 79.28C248.955 79.26 253.415 79.22 257.295 78.72L257.415 79.98C253.395 80.6 249.075 80.66 245.655 80.66ZM246.835 73.88H256.195V75.24H246.835V73.88ZM246.835 68.24H248.495V74.24H246.835V68.24ZM269.046 77.18H285.446V78.54H269.046V77.18ZM276.366 77.82H278.006V84.56H276.366V77.82ZM271.106 67.2H272.766V69.68H281.706V67.2H283.346V75.02H271.106V67.2ZM272.766 71.02V73.68H281.706V71.02H272.766ZM293.365 67.32C296.065 67.32 297.985 68.82 297.985 71.04C297.985 73.24 296.065 74.78 293.365 74.78C290.685 74.78 288.765 73.24 288.765 71.04C288.765 68.82 290.685 67.32 293.365 67.32ZM293.365 68.7C291.605 68.7 290.345 69.66 290.345 71.04C290.345 72.44 291.605 73.38 293.365 73.38C295.125 73.38 296.385 72.44 296.385 71.04C296.385 69.66 295.125 68.7 293.365 68.7ZM292.625 76.78H294.285V84H292.625V76.78ZM300.625 66.48H302.265V84.58H300.625V66.48ZM287.645 77.68L287.425 76.28C290.785 76.28 295.365 76.24 299.345 75.64L299.465 76.88C295.385 77.62 290.945 77.68 287.645 77.68ZM307.69 83.1349C307.302 83.1349 306.968 82.9976 306.689 82.723C306.409 82.4437 306.27 82.1075 306.27 81.7145C306.27 81.3262 306.409 80.9948 306.689 80.7202C306.968 80.4408 307.302 80.3011 307.69 80.3011C308.078 80.3011 308.412 80.4408 308.691 80.7202C308.971 80.9948 309.11 81.3262 309.11 81.7145C309.11 81.9749 309.044 82.214 308.912 82.4318C308.784 82.6449 308.613 82.8153 308.4 82.9432C308.187 83.071 307.95 83.1349 307.69 83.1349ZM328.806 66.46H330.486V84.56H328.806V66.46ZM330.026 73.8H333.366V75.18H330.026V73.8ZM324.186 68.42H325.806C325.806 73.56 323.446 78.2 317.606 81.14L316.686 79.86C321.686 77.32 324.186 73.46 324.186 68.68V68.42ZM317.526 68.42H325.046V69.78H317.526V68.42ZM339.424 68.42H340.784V69.88C340.784 73.2 338.784 75.98 335.744 77.08L334.904 75.76C337.624 74.8 339.424 72.46 339.424 69.88V68.42ZM339.724 68.42H341.084V69.86C341.084 72.22 342.804 74.34 345.464 75.22L344.664 76.52C341.644 75.52 339.724 72.94 339.724 69.86V68.42ZM335.404 67.82H345.064V69.18H335.404V67.82ZM347.344 66.48H349.004V77.38H347.344V66.48ZM348.544 71.06H351.684V72.46H348.544V71.06ZM343.244 77.86C346.924 77.86 349.184 79.08 349.184 81.18C349.184 83.3 346.924 84.52 343.244 84.52C339.564 84.52 337.304 83.3 337.304 81.18C337.304 79.08 339.564 77.86 343.244 77.86ZM343.244 79.2C340.564 79.2 338.924 79.92 338.924 81.18C338.924 82.46 340.564 83.22 343.244 83.22C345.924 83.22 347.564 82.46 347.564 81.18C347.564 79.92 345.924 79.2 343.244 79.2ZM360.936 71.42H373.156V72.78H360.936V71.42ZM360.936 66.94H362.576V72.2H360.936V66.94ZM358.676 74.64H375.016V76H358.676V74.64ZM365.996 78.46H367.416V78.76C367.416 81.94 364.196 83.92 360.516 84.48L359.896 83.2C363.176 82.76 365.996 81.08 365.996 78.76V78.46ZM366.296 78.46H367.716V78.76C367.716 81.08 370.536 82.76 373.816 83.2L373.196 84.48C369.516 83.92 366.296 81.94 366.296 78.76V78.46ZM360.596 77.88H373.096V79.22H360.596V77.88ZM390.834 66.48H392.434V84.56H390.834V66.48ZM382.994 73.86H387.554V75.2H382.994V73.86ZM387.074 66.94H388.634V83.64H387.074V66.94ZM383.214 68.76H384.814C384.814 73.5 382.914 77.76 378.034 80.66L377.054 79.48C381.314 76.92 383.214 73.32 383.214 69.06V68.76ZM377.854 68.76H383.834V70.12H377.854V68.76ZM401.506 67.22H403.146V69.82H408.246V67.22H409.866V75.12H401.506V67.22ZM403.146 71.12V73.78H408.246V71.12H403.146ZM413.126 66.48H414.786V75.8H413.126V66.48ZM414.066 70.36H417.446V71.74H414.066V70.36ZM403.306 76.68H414.786V81.06H404.986V83.78H403.346V79.82H413.166V78H403.306V76.68ZM403.346 83.04H415.446V84.36H403.346V83.04ZM419.964 73.56H421.364C425.004 73.56 427.144 73.44 429.624 72.94L429.824 74.28C427.264 74.8 425.064 74.92 421.364 74.92H419.964V73.56ZM419.964 67.52H427.944V68.86H421.604V74.36H419.964V67.52ZM431.524 66.48H433.184V75.58H431.524V66.48ZM432.724 70.28H435.864V71.66H432.724V70.28ZM421.704 76.5H433.184V80.96H423.384V83.76H421.744V79.68H431.564V77.82H421.704V76.5ZM421.744 82.98H433.844V84.32H421.744V82.98ZM449.923 66.5H451.583V80.06H449.923V66.5ZM451.063 72.42H454.263V73.82H451.063V72.42ZM437.603 68.68H448.283V70.02H437.603V68.68ZM442.943 71.02C445.503 71.02 447.263 72.36 447.263 74.4C447.263 76.42 445.503 77.76 442.943 77.76C440.363 77.76 438.603 76.42 438.603 74.4C438.603 72.36 440.363 71.02 442.943 71.02ZM442.943 72.32C441.303 72.32 440.183 73.14 440.183 74.4C440.183 75.64 441.303 76.46 442.943 76.46C444.563 76.46 445.683 75.64 445.683 74.4C445.683 73.14 444.563 72.32 442.943 72.32ZM442.103 66.48H443.763V69.38H442.103V66.48ZM440.323 82.8H452.403V84.16H440.323V82.8ZM440.323 78.98H441.983V83.38H440.323V78.98ZM468.181 66.46H469.861V84.58H468.181V66.46ZM469.461 73.6H472.821V75H469.461V73.6ZM456.721 78.68H458.141C461.481 78.68 463.821 78.56 466.521 78.06L466.701 79.46C463.921 79.98 461.541 80.08 458.141 80.08H456.721V78.68ZM456.721 68.22H465.121V69.58H458.361V79.3H456.721V68.22ZM476.186 83.1349C475.798 83.1349 475.464 82.9976 475.185 82.723C474.905 82.4437 474.766 82.1075 474.766 81.7145C474.766 81.3262 474.905 80.9948 475.185 80.7202C475.464 80.4408 475.798 80.3011 476.186 80.3011C476.574 80.3011 476.908 80.4408 477.188 80.7202C477.467 80.9948 477.607 81.3262 477.607 81.7145C477.607 81.9749 477.54 82.214 477.408 82.4318C477.28 82.6449 477.109 82.8153 476.896 82.9432C476.683 83.071 476.446 83.1349 476.186 83.1349ZM119.74 90.48H121.34V108.56H119.74V90.48ZM113.16 96.96H116.62V98.34H113.16V96.96ZM116.12 90.9H117.68V107.64H116.12V90.9ZM109.68 93.28H110.96V95.58C110.96 99.54 109.44 103.28 106.78 104.96L105.76 103.72C108.28 102.2 109.68 98.9 109.68 95.58V93.28ZM110.02 93.28H111.3V95.58C111.3 98.72 112.66 101.86 115.14 103.3L114.12 104.52C111.48 102.92 110.02 99.36 110.02 95.58V93.28ZM106.26 92.58H114.52V93.96H106.26V92.58ZM138.138 90.48H139.738V108.56H138.138V90.48ZM135.078 97.72H138.558V99.1H135.078V97.72ZM134.038 90.88H135.598V107.64H134.038V90.88ZM125.038 102.72H126.218C128.858 102.72 130.658 102.62 132.758 102.18L132.918 103.56C130.758 104.02 128.938 104.1 126.218 104.1H125.038V102.72ZM125.038 92.68H131.758V94.04H126.678V103.34H125.038V92.68ZM142.797 104.96H159.177V106.34H142.797V104.96ZM150.117 101.08H151.777V105.54H150.117V101.08ZM144.777 91.82H157.157V97.3H146.477V100.92H144.837V95.96H155.517V93.16H144.777V91.82ZM144.837 100.22H157.577V101.58H144.837V100.22ZM167.228 91.22H168.868V93.82H173.968V91.22H175.588V99.12H167.228V91.22ZM168.868 95.12V97.78H173.968V95.12H168.868ZM178.848 90.48H180.508V99.8H178.848V90.48ZM179.788 94.36H183.168V95.74H179.788V94.36ZM169.028 100.68H180.508V105.06H170.708V107.78H169.068V103.82H178.888V102H169.028V100.68ZM169.068 107.04H181.168V108.36H169.068V107.04ZM185.687 97.56H187.087C190.727 97.56 192.867 97.44 195.347 96.94L195.547 98.28C192.987 98.8 190.787 98.92 187.087 98.92H185.687V97.56ZM185.687 91.52H193.667V92.86H187.327V98.36H185.687V91.52ZM197.247 90.48H198.907V99.58H197.247V90.48ZM198.447 94.28H201.587V95.66H198.447V94.28ZM187.427 100.5H198.907V104.96H189.107V107.76H187.467V103.68H197.287V101.82H187.427V100.5ZM187.467 106.98H199.567V108.32H187.467V106.98ZM215.525 90.48H217.185V108.56H215.525V90.48ZM216.785 97.9H220.145V99.3H216.785V97.9ZM203.185 93.36H213.845V94.72H203.185V93.36ZM208.585 96.22C211.145 96.22 212.985 97.94 212.985 100.38C212.985 102.82 211.145 104.54 208.585 104.54C206.045 104.54 204.185 102.82 204.185 100.38C204.185 97.94 206.045 96.22 208.585 96.22ZM208.585 97.6C206.945 97.6 205.765 98.74 205.765 100.38C205.765 102 206.945 103.16 208.585 103.16C210.225 103.16 211.405 102 211.405 100.38C211.405 98.74 210.225 97.6 208.585 97.6ZM207.725 90.7H209.385V93.98H207.725V90.7ZM226.464 93.06H227.804V96C227.804 99.82 225.504 103.66 222.624 105.08L221.664 103.76C224.284 102.52 226.464 99.12 226.464 96V93.06ZM226.784 93.06H228.124V96C228.124 99.06 230.304 102.18 232.964 103.32L232.024 104.64C229.104 103.28 226.784 99.76 226.784 96V93.06ZM222.264 92.32H232.364V93.72H222.264V92.32ZM234.804 90.48H236.464V108.56H234.804V90.48ZM247.455 91.22H259.615V97.32H247.455V91.22ZM257.975 92.56H249.075V95.98H257.975V92.56ZM245.355 99.44H261.695V100.78H245.355V99.44ZM252.715 96.9H254.355V100.02H252.715V96.9ZM252.695 101.92H254.115V102.48C254.115 105.72 250.955 107.84 247.255 108.46L246.615 107.16C249.915 106.68 252.695 104.88 252.695 102.48V101.92ZM252.955 101.92H254.375V102.48C254.375 104.88 257.135 106.68 260.435 107.16L259.795 108.46C256.095 107.84 252.955 105.72 252.955 102.48V101.92ZM276.013 90.48H277.673V108.56H276.013V90.48ZM277.273 97.9H280.633V99.3H277.273V97.9ZM263.673 93.36H274.333V94.72H263.673V93.36ZM269.073 96.22C271.633 96.22 273.473 97.94 273.473 100.38C273.473 102.82 271.633 104.54 269.073 104.54C266.533 104.54 264.673 102.82 264.673 100.38C264.673 97.94 266.533 96.22 269.073 96.22ZM269.073 97.6C267.433 97.6 266.253 98.74 266.253 100.38C266.253 102 267.433 103.16 269.073 103.16C270.713 103.16 271.893 102 271.893 100.38C271.893 98.74 270.713 97.6 269.073 97.6ZM268.213 90.7H269.873V93.98H268.213V90.7ZM290.832 93.66H295.892V95.02H290.832V93.66ZM290.832 97.52H295.932V98.9H290.832V97.52ZM282.992 92.04H291.252V100.52H282.992V92.04ZM289.612 93.38H284.612V99.18H289.612V93.38ZM295.372 90.5H297.032V103.7H295.372V90.5ZM285.412 106.8H297.472V108.16H285.412V106.8ZM285.412 102.5H287.072V107.42H285.412V102.5ZM308.023 91.2H309.663V93.46H318.403V91.2H320.063V98.42H308.023V91.2ZM309.663 94.78V97.08H318.403V94.78H309.663ZM305.843 100.34H322.183V101.7H305.843V100.34ZM313.203 97.64H314.843V100.94H313.203V97.64ZM307.963 106.8H320.383V108.16H307.963V106.8ZM307.963 103.16H309.623V107.26H307.963V103.16ZM326.482 95.5H338.742V96.86H326.482V95.5ZM326.482 90.84H328.122V96.1H326.482V90.84ZM324.262 98.96H340.602V100.3H324.262V98.96ZM332.402 101.92C336.262 101.92 338.602 103.1 338.602 105.22C338.602 107.3 336.262 108.5 332.402 108.5C328.542 108.5 326.202 107.3 326.202 105.22C326.202 103.1 328.542 101.92 332.402 101.92ZM332.402 103.22C329.582 103.22 327.882 103.94 327.882 105.22C327.882 106.46 329.582 107.18 332.402 107.18C335.242 107.18 336.922 106.46 336.922 105.22C336.922 103.94 335.242 103.22 332.402 103.22ZM350.82 90.78C354.8 90.78 357.18 91.9 357.18 93.92C357.18 95.94 354.8 97.06 350.82 97.06C346.82 97.06 344.46 95.94 344.46 93.92C344.46 91.9 346.82 90.78 350.82 90.78ZM350.82 92.04C347.86 92.04 346.16 92.72 346.16 93.92C346.16 95.12 347.86 95.8 350.82 95.8C353.76 95.8 355.46 95.12 355.46 93.92C355.46 92.72 353.76 92.04 350.82 92.04ZM342.64 98.26H358.98V99.6H342.64V98.26ZM344.62 101.14H356.9V105.22H346.3V107.42H344.66V104.02H355.26V102.42H344.62V101.14ZM344.66 107.06H357.44V108.36H344.66V107.06ZM380.092 90.48H381.692V108.56H380.092V90.48ZM373.512 96.96H376.972V98.34H373.512V96.96ZM376.472 90.9H378.032V107.64H376.472V90.9ZM370.032 93.28H371.312V95.58C371.312 99.54 369.792 103.28 367.132 104.96L366.112 103.72C368.632 102.2 370.032 98.9 370.032 95.58V93.28ZM370.372 93.28H371.652V95.58C371.652 98.72 373.012 101.86 375.492 103.3L374.472 104.52C371.832 102.92 370.372 99.36 370.372 95.58V93.28ZM366.612 92.58H374.872V93.96H366.612V92.58ZM398.49 90.48H400.09V108.56H398.49V90.48ZM395.43 97.72H398.91V99.1H395.43V97.72ZM394.39 90.88H395.95V107.64H394.39V90.88ZM385.39 102.72H386.57C389.21 102.72 391.01 102.62 393.11 102.18L393.27 103.56C391.11 104.02 389.29 104.1 386.57 104.1H385.39V102.72ZM385.39 92.68H392.11V94.04H387.03V103.34H385.39V92.68ZM403.148 104.96H419.528V106.34H403.148V104.96ZM410.468 101.08H412.128V105.54H410.468V101.08ZM405.128 91.82H417.508V97.3H406.828V100.92H405.188V95.96H415.868V93.16H405.128V91.82ZM405.188 100.22H417.928V101.58H405.188V100.22ZM426.82 100.06H443.16V101.4H426.82V100.06ZM434.16 97.72H435.8V100.62H434.16V97.72ZM428.98 96.98H441.24V98.28H428.98V96.98ZM428.98 91H441.16V92.3H430.62V97.68H428.98V91ZM430.14 93.96H440.68V95.24H430.14V93.96ZM434.98 102.74C438.92 102.74 441.18 103.74 441.18 105.64C441.18 107.52 438.92 108.52 434.98 108.52C431.04 108.52 428.78 107.52 428.78 105.64C428.78 103.74 431.04 102.74 434.98 102.74ZM434.98 104C432.08 104 430.46 104.58 430.46 105.64C430.46 106.72 432.08 107.28 434.98 107.28C437.88 107.28 439.5 106.72 439.5 105.64C439.5 104.58 437.88 104 434.98 104ZM458.978 90.48H460.578V108.56H458.978V90.48ZM452.398 96.96H455.858V98.34H452.398V96.96ZM455.358 90.9H456.918V107.64H455.358V90.9ZM448.918 93.28H450.198V95.58C450.198 99.54 448.678 103.28 446.018 104.96L444.998 103.72C447.518 102.2 448.918 98.9 448.918 95.58V93.28ZM449.258 93.28H450.538V95.58C450.538 98.72 451.898 101.86 454.378 103.3L453.358 104.52C450.718 102.92 449.258 99.36 449.258 95.58V93.28ZM445.498 92.58H453.758V93.96H445.498V92.58ZM475.877 90.48H477.537V108.56H475.877V90.48ZM477.137 97.9H480.497V99.3H477.137V97.9ZM463.537 93.36H474.197V94.72H463.537V93.36ZM468.937 96.22C471.497 96.22 473.337 97.94 473.337 100.38C473.337 102.82 471.497 104.54 468.937 104.54C466.397 104.54 464.537 102.82 464.537 100.38C464.537 97.94 466.397 96.22 468.937 96.22ZM468.937 97.6C467.297 97.6 466.117 98.74 466.117 100.38C466.117 102 467.297 103.16 468.937 103.16C470.577 103.16 471.757 102 471.757 100.38C471.757 98.74 470.577 97.6 468.937 97.6ZM468.077 90.7H469.737V93.98H468.077V90.7ZM486.815 93.06H488.155V96C488.155 99.82 485.855 103.66 482.975 105.08L482.015 103.76C484.635 102.52 486.815 99.12 486.815 96V93.06ZM487.135 93.06H488.475V96C488.475 99.06 490.655 102.18 493.315 103.32L492.375 104.64C489.455 103.28 487.135 99.76 487.135 96V93.06ZM482.615 92.32H492.715V93.72H482.615V92.32ZM495.155 90.48H496.815V108.56H495.155V90.48ZM507.807 91.22H519.967V97.32H507.807V91.22ZM518.327 92.56H509.427V95.98H518.327V92.56ZM505.707 99.44H522.047V100.78H505.707V99.44ZM513.067 96.9H514.707V100.02H513.067V96.9ZM513.047 101.92H514.467V102.48C514.467 105.72 511.307 107.84 507.607 108.46L506.967 107.16C510.267 106.68 513.047 104.88 513.047 102.48V101.92ZM513.307 101.92H514.727V102.48C514.727 104.88 517.487 106.68 520.787 107.16L520.147 108.46C516.447 107.84 513.307 105.72 513.307 102.48V101.92ZM536.485 90.5H538.145V104.06H536.485V90.5ZM537.625 96.42H540.825V97.82H537.625V96.42ZM524.165 92.68H534.845V94.02H524.165V92.68ZM529.505 95.02C532.065 95.02 533.825 96.36 533.825 98.4C533.825 100.42 532.065 101.76 529.505 101.76C526.925 101.76 525.165 100.42 525.165 98.4C525.165 96.36 526.925 95.02 529.505 95.02ZM529.505 96.32C527.865 96.32 526.745 97.14 526.745 98.4C526.745 99.64 527.865 100.46 529.505 100.46C531.125 100.46 532.245 99.64 532.245 98.4C532.245 97.14 531.125 96.32 529.505 96.32ZM528.665 90.48H530.325V93.38H528.665V90.48ZM526.885 106.8H538.965V108.16H526.885V106.8ZM526.885 102.98H528.545V107.38H526.885V102.98ZM554.743 90.46H556.423V108.58H554.743V90.46ZM556.023 97.6H559.383V99H556.023V97.6ZM543.283 102.68H544.703C548.043 102.68 550.383 102.56 553.083 102.06L553.263 103.46C550.483 103.98 548.103 104.08 544.703 104.08H543.283V102.68ZM543.283 92.22H551.683V93.58H544.923V103.3H543.283V92.22ZM562.749 107.135C562.36 107.135 562.027 106.998 561.747 106.723C561.468 106.444 561.328 106.107 561.328 105.714C561.328 105.326 561.468 104.995 561.747 104.72C562.027 104.441 562.36 104.301 562.749 104.301C563.137 104.301 563.471 104.441 563.75 104.72C564.029 104.995 564.169 105.326 564.169 105.714C564.169 105.975 564.103 106.214 563.97 106.432C563.842 106.645 563.672 106.815 563.459 106.943C563.246 107.071 563.009 107.135 562.749 107.135Z" fill="black"/>
</g>
<defs>
<filter id="filter0_d_286_86" x="12.6011" y="0" width="585.399" height="179.204" filterUnits="userSpaceOnUse" color-interpolation-filters="sRGB">
<feFlood flood-opacity="0" result="BackgroundImageFix"/>
<feColorMatrix in="SourceAlpha" type="matrix" values="0 0 0 0 0 0 0 0 0 0 0 0 0 0 0 0 0 0 127 0" result="hardAlpha"/>
<feOffset dy="4"/>
<feGaussianBlur stdDeviation="2"/>
<feComposite in2="hardAlpha" operator="out"/>
<feColorMatrix type="matrix" values="0 0 0 0 0 0 0 0 0 0 0 0 0 0 0 0 0 0 0.25 0"/>
<feBlend mode="normal" in2="BackgroundImageFix" result="effect1_dropShadow_286_86"/>
<feBlend mode="normal" in="SourceGraphic" in2="effect1_dropShadow_286_86" result="shape"/>
</filter>
</defs>
</svg>
